
<?xml version="1.0" standalone="no"?>
<!DOCTYPE svg PUBLIC "-//W3C//DTD SVG 1.1//EN" "http://www.w3.org/Graphics/SVG/1.1/DTD/svg11.dtd" >
<svg xmlns="http://www.w3.org/2000/svg">
<metadata></metadata>
<defs>
<font id="houschka_alt_prolight" horiz-adv-x="1228" >
<font-face units-per-em="2048" ascent="1556" descent="-492" />
<missing-glyph horiz-adv-x="514" />
<glyph unicode="&#xfb01;" horiz-adv-x="950" d="M63 860v43q0 6 4 10.5t9 4.5h127v155q0 162 61 242q72 98 223 98q148 0 252 -86q13 -6 6 -20l-20 -43q-10 -13 -25 -4q-90 75 -196 75q-114 -3 -168 -75q-45 -64 -45 -195v-147h489q5 0 9 -4.5t4 -10.5v-889q0 -6 -4 -10t-9 -4h-61q-14 0 -14 14v832h-414v-832 q0 -14 -12 -14h-62q-14 0 -14 14v832h-127q-5 0 -9 4t-4 10z" />
<glyph unicode="&#xfb02;" horiz-adv-x="952" d="M63 860v43q0 6 4 10.5t9 4.5h127v167q0 328 303 328q168 0 276 -67q15 -6 15 -23v-1309q0 -14 -15 -14h-61q-5 0 -9.5 4t-4.5 10v1250q0 14 -13 22q-75 51 -188 51q-115 0 -165 -69.5t-50 -196.5v-153h303q14 0 14 -15v-43q0 -14 -14 -14h-303v-832q0 -14 -12 -14h-62 q-14 0 -14 14v832h-127q-5 0 -9 4t-4 10z" />
<glyph unicode="&#xfb03;" horiz-adv-x="1464" d="M63 860v43q0 6 4 10.5t9 4.5h127v145q0 187 71 260q63 70 183 70q138 0 245 -86q11 -7 7 -19l-21 -41q-10 -13 -24 -4q-84 72 -189 72q-90 0 -139 -55q-45 -55 -45 -207v-135h426v155q0 159 63 242q72 98 224 98q144 0 251 -86q10 -7 7 -20l-23 -43q-7 -15 -22 -4 q-90 75 -199 75q-115 -3 -166 -75q-45 -64 -45 -195v-147h487q6 0 10.5 -4.5t4.5 -10.5v-889q0 -14 -15 -14h-61q-14 0 -14 14v832h-412v-832q0 -14 -14 -14h-62q-14 0 -14 14v832h-426v-832q0 -14 -12 -14h-62q-14 0 -14 14v832h-127q-5 0 -9 4t-4 10z" />
<glyph unicode="&#xfb04;" horiz-adv-x="1468" d="M63 860v43q0 6 4 10.5t9 4.5h127v145q0 187 71 260q63 70 183 70q138 0 245 -86q11 -7 7 -19l-21 -41q-10 -13 -24 -4q-84 72 -189 72q-90 0 -139 -55q-45 -55 -45 -207v-135h426v167q0 328 303 328q165 0 278 -67q13 -6 13 -23v-1309q0 -6 -4 -10t-9 -4h-61 q-14 0 -14 14v1250q0 12 -13 22q-77 51 -190 51q-115 0 -164 -69.5t-49 -196.5v-153h303q5 0 8.5 -4.5t3.5 -10.5v-43q0 -14 -12 -14h-303v-832q0 -14 -14 -14h-62q-14 0 -14 14v832h-426v-832q0 -14 -12 -14h-62q-14 0 -14 14v832h-127q-5 0 -9 4t-4 10z" />
<glyph horiz-adv-x="2048" />
<glyph horiz-adv-x="2048" />
<glyph unicode="&#xd;" horiz-adv-x="2048" />
<glyph unicode=" "  horiz-adv-x="514" />
<glyph unicode="&#x09;" horiz-adv-x="514" />
<glyph unicode="&#xa0;" horiz-adv-x="514" />
<glyph unicode="!" horiz-adv-x="456" d="M188 41q0 26 17 42.5t45 16.5q25 0 41 -16.5t16 -42.5t-16 -42.5t-41 -16.5q-28 0 -45 16.5t-17 42.5zM195 1380q-1 6 2.5 10.5t9.5 4.5h84q14 0 14 -15l-22 -1007q0 -6 -4.5 -10.5t-10.5 -4.5h-39q-14 0 -14 15z" />
<glyph unicode="&#x22;" horiz-adv-x="501" d="M82 1366q0 29 20 29h60q20 0 20 -29l-16 -340q0 -25 -19 -25h-30q-19 0 -19 25zM319 1366q-3 29 19 29h61q22 0 19 -29l-15 -340q0 -25 -20 -25h-29q-17 0 -20 25z" />
<glyph unicode="#" horiz-adv-x="1392" d="M0 285v47q0 5 4 9.5t10 4.5h348l89 416h-336q-15 0 -15 14v47q0 5 4.5 10t10.5 5h350l90 417q3 13 18 13h41q20 0 13 -23l-88 -407h432l88 417q3 13 18 13h43q16 0 10 -23l-86 -407h336q4 0 8.5 -5t4.5 -10v-47q0 -6 -4 -10t-9 -4h-352l-86 -416h336q6 0 10 -4.5t4 -9.5 v-47q0 -15 -14 -15h-352l-88 -417q-6 -15 -19 -15h-45q-16 0 -12 19l88 413h-428l-88 -417q-6 -15 -19 -15h-45q-15 0 -12 19l88 413h-332q-14 0 -14 15zM436 346h430l88 416h-430z" />
<glyph unicode="$" d="M170 127l27 53q7 14 20 4q44 -27 70 -42t79 -38.5t112.5 -35t125.5 -11.5q154 0 244 68q102 76 102 221q0 144 -168 225q-60 28 -189.5 64t-203.5 67q-211 96 -211 279q0 154 103 240q106 92 305 98v133q0 4 4.5 8t9.5 4h29q14 0 14 -12v-131q95 -3 185 -26.5t155 -61.5 q15 -9 6 -21l-22 -53q-7 -14 -23 -4q-149 88 -326 88q-189 0 -278 -86q-66 -66 -66 -172q0 -78 50.5 -130t148.5 -89q48 -18 186 -56t211 -77q179 -99 179 -279q0 -184 -134 -284q-105 -82 -272 -88v-129q0 -15 -14 -15h-29q-5 0 -9.5 4.5t-4.5 10.5v127q-221 5 -408 126 q-13 9 -8 21z" />
<glyph unicode="%" horiz-adv-x="1286" d="M51 1098q0 129 92.5 221t221.5 92q128 0 220.5 -92t92.5 -221t-92.5 -221.5t-220.5 -92.5q-129 0 -221.5 92t-92.5 222zM106 1098q0 -108 75 -183t181 -75q107 0 181.5 75.5t74.5 182.5q0 106 -74.5 181t-181.5 75q-106 0 -181 -75t-75 -181zM168 4q-2 4 2 10l877 1368 q7 13 18 13h41q16 0 8 -17l-876 -1370q-5 -8 -19 -8h-41q-8 0 -10 4zM606 293q0 129 93 221t221 92q129 0 221 -92t92 -221t-92 -221t-221 -92q-128 0 -221 91.5t-93 221.5zM664 293q0 -109 75.5 -184.5t182.5 -75.5q106 0 180 76.5t74 183.5q0 106 -74 181t-180 75 q-107 0 -182.5 -75t-75.5 -181z" />
<glyph unicode="&#x26;" horiz-adv-x="1308" d="M88 371q0 70 24.5 129.5t71 107t98.5 83t121 71.5q-96 184 -96 309q0 148 83.5 233t219.5 85q134 0 209.5 -74.5t75.5 -200.5q0 -55 -22.5 -104.5t-48 -81.5t-82 -70.5t-86 -54.5t-99.5 -51q-25 -13 -37 -19q73 -129 182 -260.5t222 -226.5q106 142 106 397q0 14 14 14 h58q14 0 14 -14q0 -278 -123 -446q73 -57 146 -92.5t125 -36.5q14 0 14 -17v-57q0 -14 -14 -14q-135 0 -330 147q-147 -147 -381 -147q-97 0 -179 22.5t-147.5 68t-102 122.5t-36.5 178zM178 371q0 -156 103 -237t278 -81q190 0 309 125q-121 103 -235.5 240t-192.5 274 q-126 -65 -194 -140.5t-68 -180.5zM397 1069q0 -110 86 -266q8 4 39 19t43.5 21t42.5 22t44.5 25.5t40 27.5t38.5 32t30.5 34t26 39t15 42.5t6.5 48.5q0 95 -52.5 149t-146.5 54t-153.5 -64.5t-59.5 -183.5z" />
<glyph unicode="'" horiz-adv-x="264" d="M82 1366q0 29 20 29h60q20 0 20 -29l-16 -340q0 -25 -19 -25h-30q-19 0 -19 25z" />
<glyph unicode="(" horiz-adv-x="489" d="M106 651q0 264 61 514t179 432q11 17 29 17h55q13 0 16.5 -8t-2.5 -19q-241 -392 -241 -936q0 -547 241 -936q6 -11 2.5 -18.5t-16.5 -7.5h-55q-18 0 -29 16q-118 182 -179 431.5t-61 514.5z" />
<glyph unicode=")" horiz-adv-x="489" d="M42.5 -303.5q-3.5 7.5 2.5 18.5q242 390 242 936q0 543 -242 936q-6 11 -2.5 19t16.5 8h56q17 0 28 -17q118 -182 179 -432t61 -514q0 -265 -61 -514.5t-179 -431.5q-11 -16 -28 -16h-56q-13 0 -16.5 7.5z" />
<glyph unicode="*" horiz-adv-x="858" d="M94 1241q11 32 58 19q16 -5 81 -29l173 -66l-9 185q-1 19 -2 37.5t-1.5 29t-0.5 19.5q0 49 37 49q35 0 35 -49q0 -9 -0.5 -19.5t-1.5 -29t-2 -37.5l-6 -185l172 66l80 29q46 12 57 -19q12 -34 -35 -49l-82 -23l-178 -49l115 -145l53 -68q28 -39 2 -59q-32 -23 -57 16 q-7 10 -22.5 33t-27.5 41l-102 152l-102 -152q-47 -72 -49 -74q-27 -38 -58 -16q-26 20 2 59q16 26 51 68l115 145l-176 49l-84 23q-44 15 -35 49z" />
<glyph unicode="+" horiz-adv-x="1132" d="M76 694v58q0 5 4 9.5t10 4.5h432v432q0 14 15 14h57q5 0 9.5 -4t4.5 -10v-432h432q6 0 10.5 -4.5t4.5 -9.5v-58q0 -14 -15 -14h-432v-434q0 -4 -4.5 -8.5t-9.5 -4.5h-57q-6 0 -10.5 4t-4.5 9v434h-432q-14 0 -14 14z" />
<glyph unicode="," horiz-adv-x="321" d="M102 41q0 26 17 42.5t45 16.5q35 0 54.5 -26t19.5 -66q0 -47 -29 -92.5t-72 -67.5q-13 -5 -22 7l-9 14q-6 9 5 20q39 35 39 60q0 19 -24 42t-24 50z" />
<glyph unicode="-" horiz-adv-x="1001" d="M178 573v58q0 14 15 14h616q5 0 9.5 -4t4.5 -10v-58q0 -5 -4.5 -9.5t-9.5 -4.5h-616q-6 0 -10.5 4.5t-4.5 9.5z" />
<glyph unicode="." horiz-adv-x="305" d="M102 41q0 26 17 42.5t43 16.5t42.5 -16.5t16.5 -42.5t-16.5 -42.5t-42.5 -16.5t-43 16.5t-17 42.5z" />
<glyph unicode="/" horiz-adv-x="724" d="M-42 4q-3 4 1 12l700 1364q6 15 21 15h70q9 0 12 -5.5t-2 -13.5l-699 -1362q-7 -14 -22 -14h-70q-8 0 -11 4z" />
<glyph unicode="0" d="M100 696q0 352 131.5 534.5t382.5 182.5q250 0 381 -182.5t131 -534.5t-131 -534t-381 -182q-251 0 -382.5 182t-131.5 534zM199 696q0 -320 108 -473q104 -155 307 -155q199 0 306 155q108 156 108 473q0 319 -108 475q-106 154 -306 154q-201 0 -307 -154 q-108 -156 -108 -475z" />
<glyph unicode="1" d="M266 1194v53q0 16 15 21l325 135q24 8 31 8h43q12 0 12 -14v-1313h291q14 0 14 -12v-58q0 -14 -14 -14h-696q-5 0 -9 4t-4 10v58q0 4 4 8t9 4h307v1221l-305 -125q-23 -7 -23 14z" />
<glyph unicode="2" d="M174 14v33q0 140 27.5 220t97.5 153q57 60 139 111t177 102.5t153 93.5q76 56 117 123t41 160q0 128 -76 213q-94 108 -266 108q-101 0 -180 -31.5t-156 -85.5q-17 -10 -25 3l-24 51q-8 13 6 22q91 58 178.5 90.5t206.5 32.5q102 0 190 -35.5t146 -101.5q94 -105 94 -264 q0 -113 -47.5 -193t-136.5 -149q-59 -44 -152 -95t-174 -100.5t-137 -105.5q-54 -52 -74 -113t-20 -172h747q14 0 14 -12v-58q0 -14 -14 -14h-838q-14 0 -14 14z" />
<glyph unicode="3" d="M160 88l24 53q8 13 25 2q132 -82 315 -82q151 0 246 70q125 86 125 248q0 173 -150 254q-87 47 -227 47h-53q-5 0 -9.5 4t-4.5 10v54q0 6 4.5 10t9.5 4h47q148 0 231 59q107 77 107 217q0 134 -100 215q-90 74 -215 74q-157 0 -304 -96q-17 -11 -24 2l-27 49q-7 15 8 25 q84 52 164.5 79t188.5 27q159 0 270 -90q61 -50 95 -122t34 -154q0 -119 -62.5 -202t-177.5 -118q138 -35 212.5 -127t74.5 -227q0 -190 -143 -299q-127 -94 -314 -94q-231 0 -362 83q-18 11 -8 25z" />
<glyph unicode="4" d="M111 360v48q0 13 12 30l653 953q13 18 37 18h61q5 0 9 -4t4 -10v-967h213q12 0 12 -14v-54q0 -14 -12 -14h-213v-332q0 -6 -4 -10t-9 -4h-67q-14 0 -14 14v332h-670q-12 0 -12 14zM221 428h572v840z" />
<glyph unicode="5" d="M178 141l25 52q9 15 20 2q77 -69 156.5 -101.5t202.5 -32.5q158 0 266 103q108 108 108 266q0 164 -98 270q-97 97 -240 97q-126 0 -212 -58q-69 -43 -109 -94q-8 -13 -21 -6l-45 10q-9 3 -11.5 8t-2.5 17l55 706q0 6 4.5 10.5t10.5 4.5h706q6 0 10.5 -4.5t4.5 -10.5v-57 q0 -14 -15 -14h-635l-45 -551q61 52 133 86q81 35 183 35q190 0 307 -127q117 -126 117 -322q0 -187 -125 -315q-132 -135 -346 -135q-252 0 -394 133q-17 14 -10 28z" />
<glyph unicode="6" d="M154 629q0 328 112 530q137 254 418 254q97 0 193 -22q86 -21 151 -62q13 -6 6 -20l-24 -54q-7 -12 -23 -4q-59 35 -143 56q-77 18 -158 18q-232 0 -346 -219q-88 -172 -88 -490q57 98 137 154q106 76 248 76q217 0 330 -135q98 -110 98 -293q0 -207 -131 -326 q-118 -112 -305 -112q-213 0 -332 131q-143 158 -143 518zM252 510q19 -195 82 -295q95 -149 295 -149q156 0 248 97.5t92 250.5q0 156 -89 251t-253 95q-131 0 -226 -67.5t-149 -182.5z" />
<glyph unicode="7" d="M166 1092v288q0 6 3.5 10.5t8.5 4.5h862q6 0 10.5 -4.5t4.5 -10.5v-51q0 -13 -6 -22l-607 -1293q-6 -14 -20 -14h-78q-18 0 -8 23l520 1089l105 197h-707v-217q0 -5 -4 -9t-10 -4h-62q-4 0 -8 4t-4 9z" />
<glyph unicode="8" d="M137 352q0 65 25.5 122t62 95.5t91.5 73.5t98.5 54.5t97.5 39.5q-51 20 -92 40t-87 51.5t-76.5 66t-50.5 82.5t-20 102q0 85 34.5 150t94 104.5t135 59.5t162.5 20q81 0 155 -19.5t137 -58.5t100.5 -106.5t37.5 -155.5q0 -54 -20.5 -101t-50.5 -80t-77 -64t-87.5 -50.5 t-93.5 -40.5q64 -26 108 -46.5t99.5 -56t89.5 -73t58 -92t24 -117.5q0 -179 -126 -275.5t-352 -96.5q-227 0 -352 96t-125 276zM233 358q0 -141 98 -222t283 -81t284 80t99 221q0 54 -23 101.5t-59 82t-89.5 65.5t-104 51t-113.5 40q-59 -18 -108 -38t-100.5 -50 t-86.5 -64.5t-57.5 -82.5t-22.5 -103zM285 1081q0 -51 22 -95t53 -74t80 -58.5t86.5 -44.5t89.5 -35q69 24 122 49.5t103 61.5t77.5 82.5t27.5 101.5q0 68 -27 120.5t-74 83.5t-105.5 46.5t-125.5 15.5q-52 0 -97.5 -7.5t-89 -26t-74.5 -46.5t-49.5 -72.5t-18.5 -101.5z" />
<glyph unicode="9" d="M158 973q0 206 131 325q119 113 305 113q213 0 332 -131q143 -158 143 -518q0 -327 -113 -531q-137 -254 -417 -254q-93 0 -193 23q-88 22 -151 61q-14 7 -7 21l25 53q7 12 23 4q56 -34 143 -55q77 -18 158 -18q232 0 346 219q88 172 88 489q-56 -97 -137 -153 q-106 -76 -248 -76q-217 0 -330 135q-98 110 -98 293zM252 977q0 -157 89 -251.5t255 -94.5q126 0 224 70.5t149 187.5q-7 96 -31 172.5t-67.5 137t-113.5 93.5t-163 33q-157 0 -249.5 -98t-92.5 -250z" />
<glyph unicode=":" horiz-adv-x="321" d="M102 41q0 26 17.5 42.5t44.5 16.5q25 0 42 -16.5t17 -42.5t-17 -42.5t-42 -16.5q-27 0 -44.5 16.5t-17.5 42.5zM102 877q0 25 18 42t44 17q25 0 42 -17t17 -42q0 -26 -17 -43t-42 -17q-26 0 -44 17t-18 43z" />
<glyph unicode=";" horiz-adv-x="321" d="M104 41q0 26 17 42.5t45 16.5q35 0 54.5 -26t19.5 -66q1 -47 -27.5 -92.5t-73.5 -67.5q-14 -6 -20 7l-10 14q-5 11 4 20q33 30 39 46q2 7 2 14q0 19 -25 42t-25 50zM106 877q0 25 18 42t44 17q25 0 41 -17t16 -42q0 -26 -16 -43t-41 -17q-26 0 -44 17t-18 43z" />
<glyph unicode="&#x3c;" horiz-adv-x="1241" d="M104 686v74q0 12 13 18l985 445q6 4 12 1.5t6 -10.5v-69q0 -15 -12 -21l-897 -401l897 -401q12 -6 12 -21v-70q0 -17 -18 -8l-985 443q-13 6 -13 20z" />
<glyph unicode="=" horiz-adv-x="1130" d="M76 444v58q0 12 14 12h950q6 0 10.5 -3.5t4.5 -8.5v-58q0 -14 -15 -14h-950q-14 0 -14 14zM76 944v57q0 5 4 9t10 4h950q6 0 10.5 -4t4.5 -9v-57q0 -14 -15 -14h-950q-14 0 -14 14z" />
<glyph unicode="&#x3e;" horiz-adv-x="1243" d="M119 231v70q0 15 14 21l897 401l-897 401q-14 6 -14 21v69q0 8 6.5 10.5t11.5 -1.5l987 -445q13 -6 13 -18v-74q0 -14 -13 -20l-987 -443q-5 -4 -11.5 -2t-6.5 10z" />
<glyph unicode="?" horiz-adv-x="970" d="M43 1217q-5 11 10 26q183 170 430 170q179 0 297 -106q125 -112 125 -293q0 -61 -15 -109.5t-48 -89.5t-64.5 -69t-83.5 -66q-121 -87 -163.5 -155t-45.5 -177q0 -6 -4.5 -10t-9.5 -4h-45q-9 0 -16 14q-7 44 -7 66q0 110 97 215q23 23 51.5 46.5t73 58t69.5 54.5 q60 50 89.5 103t29.5 123q0 146 -100 233q-95 82 -232 82q-218 0 -389 -162q-16 -12 -22 4zM379 41q0 26 17.5 42.5t43.5 16.5q25 0 41.5 -16.5t16.5 -42.5t-16.5 -42.5t-41.5 -16.5q-26 0 -43.5 16.5t-17.5 42.5z" />
<glyph unicode="@" horiz-adv-x="1640" d="M102 694q0 144 61 277t162.5 230.5t242.5 155.5t294 58q192 0 344 -72.5t241 -212t89 -323.5q0 -146 -43.5 -267.5t-124 -193.5t-182.5 -72q-115 0 -121 117q-92 -119 -283 -119q-114 0 -194 56q-94 64 -94 176q0 157 206 221q129 38 359 47q0 153 -72 225 q-68 66 -184 66q-70 0 -124 -18.5t-118 -59.5q-14 -10 -20 2l-13 23q-3 13 11 20q122 84 264 84q135 0 219 -78q92 -86 92 -258v-362q0 -94 80 -94q121 0 206 134t85 349q0 172 -81 300.5t-221.5 195.5t-320.5 67q-143 0 -274 -54.5t-226 -145.5t-151.5 -216t-56.5 -260 q0 -205 91.5 -361t254 -239.5t370.5 -83.5q155 0 298.5 32.5t215.5 78.5q15 9 21 -4l10 -25q2 -11 -10 -18q-80 -47 -231 -79t-304 -32q-221 0 -395 90t-273.5 257.5t-99.5 385.5zM549 502q0 -83 69 -135q63 -48 164 -48q196 0 277 134v272q-235 -10 -346 -47 q-77 -24 -120.5 -68.5t-43.5 -107.5z" />
<glyph unicode="A" horiz-adv-x="1265" d="M10 10q0 9 4 17l559 1355q5 19 23 19h72q17 0 22 -19l559 -1353q6 -18 6 -19q0 -10 -14 -10h-72q-17 0 -20 14l-150 361h-739l-147 -361q-7 -14 -21 -14h-67q-15 0 -15 10zM289 455h684l-342 825z" />
<glyph unicode="B" horiz-adv-x="1310" d="M160 14v1366q0 15 14 15h469q181 0 289 -70q155 -96 155 -285q0 -118 -51.5 -195.5t-138.5 -115.5v-8q143 -21 224 -116.5t81 -235.5q0 -94 -37.5 -166.5t-102.5 -116t-145.5 -65t-173.5 -21.5h-569q-14 0 -14 14zM258 82h471q120 0 203 35q172 74 172 262 q0 76 -33.5 140t-99.5 104q-50 29 -116.5 37t-197.5 8h-399v-586zM258 750h373q55 0 86.5 1.5t72 8.5t68.5 22q131 70 131 246q0 160 -129 234q-89 51 -207 51h-395v-563z" />
<glyph unicode="C" horiz-adv-x="1353" d="M102 698q0 190 97 355t263 262.5t359 97.5q235 0 432 -117q16 -12 11 -26l-27 -56q-7 -11 -25 -4q-180 115 -391 115q-123 0 -237.5 -51t-197 -135.5t-132 -200.5t-49.5 -240q0 -139 50 -258t134.5 -200t197 -126.5t236.5 -45.5q211 0 394 114q16 10 22 -4l27 -57 q3 -4 3 -8q0 -8 -12 -15q-196 -118 -436 -118q-147 0 -278.5 52t-229 144t-154.5 227.5t-57 294.5z" />
<glyph unicode="D" horiz-adv-x="1507" d="M160 14v1366q0 15 14 15h485q386 0 586 -224q158 -185 158 -475q0 -207 -82 -358.5t-236 -237.5q-180 -100 -456 -100h-455q-14 0 -14 14zM258 84h360q244 0 406 86q134 72 206.5 205t72.5 321q0 260 -138 420q-84 96 -217.5 145.5t-302.5 49.5h-387v-1227z" />
<glyph unicode="E" horiz-adv-x="1202" d="M160 14v1366q0 15 14 15h944q6 0 10.5 -4.5t4.5 -10.5v-59q0 -5 -4.5 -9.5t-10.5 -4.5h-860v-566h756q4 0 9 -4.5t5 -9.5v-59q0 -6 -4.5 -10.5t-9.5 -4.5h-756v-567h860q15 0 15 -14v-58q0 -14 -15 -14h-944q-14 0 -14 14z" />
<glyph unicode="F" horiz-adv-x="1130" d="M160 14v1366q0 15 14 15h881q5 0 9.5 -4.5t4.5 -10.5v-59q0 -5 -4.5 -9.5t-9.5 -4.5h-797v-566h692q5 0 10 -5t5 -9v-59q0 -6 -5 -10.5t-10 -4.5h-692v-639q0 -14 -14 -14h-70q-14 0 -14 14z" />
<glyph unicode="G" horiz-adv-x="1501" d="M102 698q0 143 57 274.5t153 228.5t229.5 154.5t279.5 57.5q235 0 432 -117q16 -12 11 -26l-27 -56q-7 -11 -25 -4q-53 32 -98 53t-126 41.5t-167 20.5q-166 0 -308 -85.5t-225 -230.5t-83 -311q0 -143 48.5 -263t132.5 -200t196 -124.5t239 -44.5q130 0 248.5 44 t194.5 115v348h-492q-4 0 -8 5t-4 10v59q0 6 3.5 10.5t8.5 4.5h567q6 0 10.5 -4.5t4.5 -10.5v-633q0 -14 -15 -14h-63q-12 0 -12 14v115q-79 -67 -196 -108t-251 -41q-145 0 -274 48t-227.5 137t-156 227t-57.5 306z" />
<glyph unicode="H" horiz-adv-x="1456" d="M160 14v1366q0 15 14 15h70q14 0 14 -15v-639h940v639q0 6 3.5 10.5t8.5 4.5h72q5 0 9.5 -4.5t4.5 -10.5v-1366q0 -6 -4.5 -10t-9.5 -4h-72q-12 0 -12 14v641h-940v-641q0 -14 -14 -14h-70q-14 0 -14 14z" />
<glyph unicode="I" horiz-adv-x="419" d="M160 14v1366q0 15 14 15h70q14 0 14 -15v-1366q0 -14 -14 -14h-70q-14 0 -14 14z" />
<glyph unicode="J" horiz-adv-x="1030" d="M25 129l32 53q2 6 7.5 8t13.5 -4q135 -120 291 -120q190 0 303 122q106 112 106 318v874q0 6 4.5 10.5t10.5 4.5h69q6 0 10.5 -4.5t4.5 -10.5v-878q0 -248 -144 -385q-70 -68 -165 -102.5t-197 -34.5q-95 0 -185 35t-157 91q-6 5 -6 13q0 4 2 10z" />
<glyph unicode="K" horiz-adv-x="1206" d="M160 14v1366q0 15 14 15h70q14 0 14 -15v-714l719 714q15 15 29 15h88q11 0 13 -7.5t-7 -15.5l-604 -592l651 -757q5 -5 5 -11q0 -12 -15 -12h-84q-18 0 -27 14l-598 695l-170 -166v-529q0 -14 -14 -14h-70q-14 0 -14 14z" />
<glyph unicode="L" horiz-adv-x="1081" d="M160 14v1366q0 15 14 15h70q14 0 14 -15v-1294h768q14 0 14 -14v-58q0 -14 -14 -14h-852q-14 0 -14 14z" />
<glyph unicode="M" horiz-adv-x="1695" d="M160 14v1366q0 15 14 15h74q16 0 26 -17l574 -932l573 932q10 17 27 17h74q14 0 14 -15v-1366q0 -14 -14 -14h-68q-14 0 -14 14v1211l-543 -875q-11 -16 -25 -16h-49q-13 0 -24 16l-543 875v-1211q0 -14 -14 -14h-68q-14 0 -14 14z" />
<glyph unicode="N" horiz-adv-x="1511" d="M160 14v1366q0 15 14 15h68q15 0 26 -17l987 -1224v1226q0 6 5 10.5t10 4.5h67q6 0 10.5 -4.5t4.5 -10.5v-1366q0 -14 -15 -14h-69q-17 0 -29 14l-983 1223v-1223q0 -6 -4.5 -10t-9.5 -4h-68q-14 0 -14 14z" />
<glyph unicode="O" horiz-adv-x="1646" d="M102 694q0 145 57.5 278.5t154 230t230 153.5t279.5 57t279.5 -57t230 -153.5t154 -230t57.5 -278.5q0 -194 -97 -358.5t-263 -260t-361 -95.5t-361 95.5t-263 260t-97 358.5zM207 694q0 -126 48 -241.5t130 -199.5t196.5 -133.5t241.5 -49.5q170 0 312.5 84.5t224.5 228 t82 311.5q0 167 -82 311t-225 230t-312 86t-311.5 -86t-223.5 -230t-81 -311z" />
<glyph unicode="P" horiz-adv-x="1259" d="M160 14v1366q0 15 14 15h533q194 0 315 -95q160 -122 160 -350q0 -114 -45.5 -207t-126.5 -153q-118 -84 -334 -84h-418v-492q0 -14 -14 -14h-70q-14 0 -14 14zM258 592h401q186 0 279 63q68 46 106.5 123.5t38.5 171.5q0 190 -135 285q-103 74 -260 74h-430v-717z" />
<glyph unicode="Q" horiz-adv-x="1646" d="M102 694q0 145 57.5 278.5t154 230t230 153.5t279.5 57t279.5 -57t230 -153.5t154 -230t57.5 -278.5q0 -180 -85.5 -337t-233.5 -255.5t-326 -113.5q0 -13 21 -21q129 -46 344 -108.5t317 -79.5q17 -4 17 -13q0 -4 -3 -8l-32 -55q-7 -10 -21 -10q-21 0 -71 12.5 t-137.5 40.5t-162 52.5t-205 68t-204.5 67.5q-21 6 -21 27v27q-132 12 -250.5 73t-203.5 154.5t-135 218.5t-50 260zM207 694q0 -126 48 -241.5t130 -199.5t196.5 -133.5t241.5 -49.5q170 0 312.5 84.5t224.5 228t82 311.5q0 167 -82 311t-225 230t-312 86t-311.5 -86 t-223.5 -230t-81 -311z" />
<glyph unicode="R" horiz-adv-x="1282" d="M160 14v1366q0 15 14 15h531q109 0 187 -15.5t146 -58.5q166 -101 166 -338q0 -220 -166 -332q-58 -39 -120 -56t-146 -20l438 -550q5 -7 5 -13q0 -12 -13 -12h-78q-19 0 -28 14l-441 559h-397v-559q0 -14 -14 -14h-70q-14 0 -14 14zM258 657h420q98 0 164.5 10.5 t120.5 41.5q141 84 141 274q0 194 -137 274q-96 54 -281 54h-428v-654z" />
<glyph unicode="S" horiz-adv-x="1116" d="M92 135l29 60q7 14 20 4q58 -38 102 -62t132 -49t182 -25q162 0 260 72q111 83 111 236q0 157 -178 239q-63 29 -202.5 69t-221.5 75q-224 96 -224 297q0 165 109 254q120 108 367 108q109 0 210.5 -25.5t174.5 -70.5q17 -7 6 -21l-27 -57q-3 -13 -22 -4 q-76 44 -168.5 68t-178.5 24q-203 0 -299 -90q-69 -66 -69 -182q0 -84 54 -139.5t159 -96.5q49 -18 197.5 -59t226.5 -82q190 -103 190 -297q0 -198 -141 -305q-125 -96 -334 -96q-247 0 -457 135q-9 7 -9 14q0 3 1 6z" />
<glyph unicode="T" horiz-adv-x="1120" d="M4 1321v59q0 15 14 15h1084q14 0 14 -15v-59q0 -5 -4 -9.5t-10 -4.5h-494v-1293q0 -14 -12 -14h-72q-5 0 -9.5 4t-4.5 10v1293h-492q-6 0 -10 4.5t-4 9.5z" />
<glyph unicode="U" horiz-adv-x="1476" d="M156 551v829q0 6 4.5 10.5t9.5 4.5h72q5 0 8.5 -4.5t3.5 -10.5v-815q0 -228 123 -360q128 -137 360 -137q236 0 361 137q123 132 123 360v815q0 15 14 15h70q14 0 14 -15v-829q0 -255 -137 -401q-156 -170 -445 -170t-442 170q-139 148 -139 401z" />
<glyph unicode="V" horiz-adv-x="1236" d="M4 1374q-3 7 -3 12q0 9 13 9h76q14 0 21 -15l503 -1263h4l508 1263q8 15 21 15h74q9 0 12 -6q1 -2 1 -5q0 -4 -3 -10l-555 -1364q-5 -16 -23 -16h-73q-18 0 -23 16z" />
<glyph unicode="W" horiz-adv-x="2080" d="M2 1388q2 8 12 7h74q14 0 21 -15l436 -1261h4l440 1261q6 15 21 15h61q13 0 21 -15l444 -1261h4l434 1261q6 15 21 15h71q8 1 12 -7q2 -4 1 -7q0 -4 -2 -7l-478 -1364q-8 -16 -22 -16h-78q-17 0 -22 16l-435 1213h-4l-430 -1213q-8 -16 -24 -16h-76q-17 0 -25 16 l-479 1364q-3 4 -3 9q0 3 1 5z" />
<glyph unicode="X" horiz-adv-x="1271" d="M1 6q-1 2 -1 4q0 4 4 10l574 676l-570 676q-6 8 -3 15.5t13 7.5h93q15 0 24 -15l502 -606l500 606q11 15 24 15h92q10 0 13.5 -7.5t-2.5 -15.5l-566 -676l570 -676q4 -5 4 -9q0 -2 -2 -5q-4 -6 -13 -6h-90q-15 0 -24 12l-506 611l-508 -611q-9 -12 -23 -12h-92 q-10 0 -13 6z" />
<glyph unicode="Y" horiz-adv-x="1196" d="M16 1395h80q14 0 23 -15l477 -655l479 655q7 15 23 15h82q10 0 12 -7v-4q0 -5 -4 -12l-543 -743v-615q0 -14 -12 -14h-72q-5 0 -9.5 4t-4.5 10v615l-539 743q-5 7 -5 13q0 10 13 10z" />
<glyph unicode="Z" horiz-adv-x="1124" d="M16 1321v59q0 6 4.5 10.5t10.5 4.5h1038q16 0 16 -13q0 -8 -4 -12l-899 -1284h912q14 0 14 -14v-58q0 -14 -14 -14h-1053q-16 0 -16 12q0 9 4 13l899 1282h-897q-6 0 -10.5 4.5t-4.5 9.5z" />
<glyph unicode="[" horiz-adv-x="602" d="M156 -297v1896q0 15 14 15h358q6 0 10.5 -4.5t4.5 -10.5v-55q0 -14 -15 -14h-276v-1759h276q6 0 10.5 -4t4.5 -9v-55q0 -14 -15 -14h-358q-14 0 -14 14z" />
<glyph unicode="\" horiz-adv-x="509" d="M27 1376q-4 19 12 19h63q13 0 19 -17l383 -1362q6 -16 -12 -16h-60q-17 0 -22 14z" />
<glyph unicode="]" horiz-adv-x="602" d="M57 -244q0 6 4.5 10.5t10.5 4.5h276v1759h-276q-15 0 -15 14v55q0 6 4.5 10.5t10.5 4.5h360q5 0 8.5 -4.5t3.5 -10.5v-1898q0 -5 -4 -8.5t-8 -3.5h-360q-15 0 -15 12v55z" />
<glyph unicode="^" horiz-adv-x="1015" d="M80.5 856q-2.5 6 3.5 12l379 598q12 15 22 15h43q13 0 25 -15l379 -598q5 -6 3 -12t-11 -6h-64q-14 0 -22 14l-330 522l-330 -522q-8 -14 -22 -14h-64q-9 0 -11.5 6z" />
<glyph unicode="_" horiz-adv-x="1017" d="M-14 -207q0 14 14 14h1018q14 0 14 -14v-47q0 -5 -4 -9.5t-10 -4.5h-1018q-6 0 -10 4.5t-4 9.5v47z" />
<glyph unicode="`" horiz-adv-x="802" d="M252 1552q0 11 12 11h64q10 0 18 -15l199 -354q1 -4 3.5 -9t2.5 -7q0 -11 -12 -11h-45q-12 0 -21 15l-217 356q-4 12 -4 14z" />
<glyph unicode="a" horiz-adv-x="962" d="M96 244q0 171 197 243q145 50 438 64v35q0 141 -57 207q-61 73 -195 73q-169 0 -295 -88q-17 -8 -22 4l-21 39q-3 14 9 23q143 92 337 92q176 0 258 -96q76 -93 76 -254v-572q0 -6 -4.5 -10t-9.5 -4h-53q-15 0 -15 14v39h-8q-72 -40 -139.5 -56.5t-153.5 -16.5 q-139 0 -233 61q-109 68 -109 203zM180 248q0 -103 92 -158q70 -45 189 -45q150 0 270 72v370q-228 0 -369 -43q-182 -58 -182 -196z" />
<glyph unicode="b" horiz-adv-x="1062" d="M156 23v1357q0 15 14 15h61q5 0 10 -4.5t5 -10.5v-516q126 72 282 72q199 0 318 -131q117 -124 117 -348q0 -184 -103 -312q-72 -84 -184 -124.5t-244 -40.5q-188 0 -262 22q-14 3 -14 21zM246 68q103 -15 192 -15q104 0 197 34.5t151 105.5q86 102 86 264 q0 199 -104 303q-100 100 -254 100q-146 0 -268 -74v-718z" />
<glyph unicode="c" horiz-adv-x="954" d="M98 459q0 181 107 307q68 81 167.5 124.5t211.5 43.5q156 0 274 -76q14 -7 6 -20l-24 -43q-4 -14 -21 -4q-108 67 -235 67q-90 0 -169 -36t-136 -103q-91 -109 -91 -260q0 -181 109 -293q110 -113 289 -113q137 0 237 62q16 8 23 -2l22 -45q2 -3 2 -6q0 -6 -8 -13 q-107 -69 -278 -69q-224 0 -357 133q-129 135 -129 346z" />
<glyph unicode="d" horiz-adv-x="1042" d="M98 457q0 177 90 299q60 85 154 132.5t211 47.5q120 0 244 -45v489q0 15 14 15h61q5 0 9 -4.5t4 -10.5v-1366q0 -6 -4 -10t-9 -4h-251q-271 0 -412 150q-111 121 -111 307zM190 457q0 -159 86 -254q117 -129 351 -129h170v739q-121 47 -240 47q-95 0 -172 -40.5 t-127 -114.5q-68 -100 -68 -248z" />
<glyph unicode="e" horiz-adv-x="1073" d="M98 469q0 199 117 328q123 139 336 139q200 0 321 -141q103 -118 103 -309v-21q0 -16 -19 -16h-766q3 -153 89 -263q52 -65 129.5 -101t171.5 -36q165 0 307 90q16 9 24 -2l21 -39q5 -10 -8 -20q-66 -41 -158 -69.5t-191 -28.5q-229 0 -364 157q-113 129 -113 332z M190 510h699q-3 153 -88 248q-44 48 -109 78t-141 30q-179 0 -275 -121q-76 -91 -86 -235z" />
<glyph unicode="f" horiz-adv-x="661" d="M63 860v43q0 6 4 10.5t9 4.5h127v165q0 179 78 260q67 70 186 70q147 0 254 -86q7 -5 7 -13q0 -4 -1 -7l-25 -43q-7 -15 -22 -4q-90 75 -199 75q-91 0 -137 -55q-53 -61 -53 -207v-155h311q14 0 14 -15v-43q0 -14 -14 -14h-311v-832q0 -14 -12 -14h-62q-14 0 -14 14v832 h-127q-5 0 -9 4t-4 10z" />
<glyph unicode="g" horiz-adv-x="1052" d="M98 461q0 99 29 189.5t86 156.5q109 129 289 129q102 0 170.5 -29t132.5 -78h4v74q0 15 14 15h60q5 0 8.5 -4.5t3.5 -10.5v-934q0 -218 -102 -329q-106 -109 -310 -109q-179 0 -323 94q-13 10 -8 21l22 45q11 11 25 2q135 -88 286 -88q165 0 246 90q76 91 76 264v135 q-120 -112 -303 -112q-181 0 -293 129q-113 134 -113 350zM188 461q0 -187 86 -295q87 -111 238 -111q92 0 162.5 29.5t132.5 91.5v574q-40 33 -70.5 53t-91.5 39.5t-133 19.5q-152 0 -236 -112q-88 -113 -88 -289z" />
<glyph unicode="h" horiz-adv-x="1110" d="M156 14v1366q0 15 14 15h61q5 0 10 -4.5t5 -10.5v-667q42 95 121 157q92 66 227 66q170 0 264 -82q111 -94 111 -315v-525q0 -14 -15 -14h-61q-12 0 -12 14v510q0 190 -90 271q-70 67 -211 67q-188 0 -277 -143q-57 -95 -57 -227v-478q0 -6 -5 -10t-10 -4h-61 q-14 0 -14 14z" />
<glyph unicode="i" horiz-adv-x="401" d="M141 1372q0 24 17 41t41 17q23 0 39 -17t16 -41q0 -23 -16 -40t-39 -17q-25 0 -41.5 16.5t-16.5 40.5zM156 14v889q0 15 14 15h61q5 0 10 -4.5t5 -10.5v-889q0 -6 -5 -10t-10 -4h-61q-14 0 -14 14z" />
<glyph unicode="j" horiz-adv-x="399" d="M14 -403q44 25 73 62t43.5 86t20 98t5.5 114v946q0 15 14 15h61q5 0 9 -4.5t4 -10.5v-827v-14q0 -62 -0.5 -94.5t-3.5 -89.5t-9.5 -90.5t-19 -79t-30.5 -74.5t-46.5 -58t-64.5 -47q-6 -3 -10 -3q-6 0 -11 5l-39 47q-3 3 -3 8q0 8 7 11zM141 1372q0 23 16.5 39t41.5 16 q23 0 39 -16t16 -39q0 -25 -16 -41t-39 -16q-25 0 -41.5 16t-16.5 41z" />
<glyph unicode="k" horiz-adv-x="935" d="M156 14v1366q0 15 14 15h61q5 0 10 -4.5t5 -10.5v-956l508 481q13 13 26 13h72q12 0 14 -8.5t-6 -14.5l-411 -381l432 -491q6 -9 6 -14q0 -9 -15 -9h-71q-13 0 -25 12l-389 445l-141 -131v-312q0 -6 -5 -10t-10 -4h-61q-14 0 -14 14z" />
<glyph unicode="l" horiz-adv-x="401" d="M156 14v1366q0 15 14 15h61q5 0 10 -4.5t5 -10.5v-1366q0 -6 -5 -10t-10 -4h-61q-14 0 -14 14z" />
<glyph unicode="m" horiz-adv-x="1652" d="M156 14v889q0 15 14 15h57q6 0 10.5 -4.5t4.5 -10.5v-147h6q27 75 94 123q81 57 195 57q139 0 225 -74q65 -58 90 -147q35 106 121 166q76 55 196 55q158 0 246 -88q96 -93 96 -281v-553q0 -6 -4.5 -10t-9.5 -4h-61q-15 0 -15 14v539q0 164 -73 240q-66 69 -193 69 q-146 0 -215 -100q-61 -89 -61 -248v-500q0 -6 -5 -10t-10 -4h-61q-15 0 -15 14v539q0 164 -73 240q-66 69 -193 69q-146 0 -215 -100q-61 -84 -61 -227v-521q0 -6 -5 -10t-10 -4h-61q-14 0 -14 14z" />
<glyph unicode="n" horiz-adv-x="1110" d="M156 14v889q0 15 14 15h57q6 0 10.5 -4.5t4.5 -10.5v-184h6q34 86 114 149q95 68 232 68q170 0 264 -82q111 -94 111 -315v-525q0 -14 -15 -14h-61q-5 0 -9.5 4t-4.5 10v510q0 191 -88 271q-70 67 -211 67q-188 0 -277 -143q-57 -97 -57 -232v-473q0 -6 -5 -10t-10 -4 h-61q-14 0 -14 14z" />
<glyph unicode="o" horiz-adv-x="1161" d="M98 457q0 202 131 336q66 67 156.5 105t194.5 38q212 0 352 -143q131 -134 131 -336q0 -97 -34.5 -183.5t-96.5 -150.5q-137 -143 -352 -143q-214 0 -351 143q-62 64 -96.5 150.5t-34.5 183.5zM186 457q0 -159 103 -277q117 -127 291 -127q175 0 292 127q101 115 101 277 q0 163 -101 278q-115 125 -292 125q-176 0 -291 -125q-103 -118 -103 -278z" />
<glyph unicode="p" horiz-adv-x="1050" d="M156 -457v1348q0 17 16 22q115 23 248 23q241 0 383 -127q147 -128 147 -348q0 -216 -116 -342q-67 -70 -157.5 -104.5t-178.5 -34.5q-146 0 -252 53v-490q0 -6 -5 -10t-10 -4h-61q-14 0 -14 14zM246 109q59 -30 112.5 -43t130.5 -13q71 0 143.5 27.5t127.5 83.5 q102 110 102 297q0 180 -117 291q-116 110 -319 110q-106 0 -180 -14v-739z" />
<glyph unicode="q" horiz-adv-x="1046" d="M98 459q0 189 105 313q141 164 422 164q119 0 241 -27q25 -3 25 -22v-1344q0 -14 -14 -14h-62q-14 0 -14 14v637q-18 -65 -64 -114q-83 -86 -231 -86q-174 0 -283 112q-125 131 -125 367zM186 461q0 -198 99 -311q87 -97 231 -97q135 0 209 84q76 94 76 287v422 q-102 16 -180 16q-243 0 -355 -145q-80 -99 -80 -256z" />
<glyph unicode="r" horiz-adv-x="722" d="M156 14v889q0 15 14 15h57q6 0 10.5 -4.5t4.5 -10.5v-168h6q24 70 80 123q78 78 192 78q67 0 133 -27q41 -18 84 -53q6 -6 6 -13q0 -4 -2 -9l-32 -43q-11 -14 -25 0q-37 30 -76 47q-52 22 -100 22q-121 0 -193 -98q-69 -98 -69 -283v-465q0 -6 -5 -10t-10 -4h-61 q-14 0 -14 14z" />
<glyph unicode="s" horiz-adv-x="821" d="M92 76l21 43q3 13 20 6q120 -78 270 -78q113 0 175 41q67 48 67 143q0 64 -36.5 100t-114.5 72q-29 14 -115 43.5t-123 45.5q-154 70 -154 210q0 102 74 164q86 70 250 70q154 0 268 -62q13 -8 6 -22l-20 -41q-5 -12 -21 -6q-103 61 -229 61q-118 0 -182 -45 q-58 -43 -58 -119q0 -56 31 -90.5t88 -58.5q36 -16 122 -45.5t118 -44.5q91 -41 138.5 -90.5t47.5 -134.5q0 -137 -104 -203q-82 -55 -225 -55q-170 0 -308 75q-9 6 -9 13q0 4 3 8z" />
<glyph unicode="t" horiz-adv-x="681" d="M47 860v43q0 6 3.5 10.5t8.5 4.5h115v176q0 14 12 14h62q14 0 14 -14v-176h354q6 0 10.5 -4.5t4.5 -10.5v-43q0 -14 -15 -14h-354v-541q0 -116 39 -174q49 -74 170 -74q99 0 186 62q17 11 23 -2l22 -45q1 -3 1 -6q0 -8 -9 -15q-109 -71 -243 -71q-153 0 -222 88 q-55 76 -55 227v551h-115q-12 0 -12 14z" />
<glyph unicode="u" horiz-adv-x="1095" d="M141 383v520q0 6 4.5 10.5t10.5 4.5h61q5 0 8.5 -4.5t3.5 -10.5v-516q0 -127 45 -207q32 -58 101.5 -91.5t171.5 -33.5t171 33.5t101 91.5q25 41 35 87.5t10 119.5v516q0 6 4.5 10.5t10.5 4.5h61q5 0 9.5 -4.5t4.5 -10.5v-520q0 -86 -14 -143t-47 -111 q-43 -71 -132.5 -110t-213.5 -39q-123 0 -212 39t-134 110q-32 54 -46 111.5t-14 142.5z" />
<glyph unicode="v" horiz-adv-x="882" d="M12 911q4 7 13 7h65q15 0 21 -15l329 -819h4l330 819q3 15 21 15h63q14 0 14 -11q0 -4 -2 -10l-372 -887q-5 -16 -23 -16h-72q-16 0 -24 16l-367 887q-2 4 -2 7q0 4 2 7z" />
<glyph unicode="w" horiz-adv-x="1417" d="M12 897q-2 6 -2 11q0 10 13 10h63q14 0 20 -15l279 -794h4l273 794q3 15 20 15h51q18 0 21 -15l274 -794h4l283 794q6 15 20 15h58q14 0 14 -11q0 -4 -2 -10l-322 -887q-5 -16 -22 -16h-64q-19 0 -24 16l-264 764h-4l-269 -764q-5 -16 -22 -16h-64q-17 0 -22 16z" />
<glyph unicode="x" horiz-adv-x="915" d="M12 6q-1 2 -2 5q0 4 4 9l389 449l-370 428q-6 7 -3 14t13 7h76q13 0 22 -15l318 -373l315 373q11 15 25 15h73q12 0 14.5 -7t-3.5 -14l-371 -424l389 -453q5 -7 5 -12q0 -8 -15 -8h-76q-13 0 -22 12l-334 396l-336 -396q-9 -12 -23 -12h-75q-9 0 -13 6z" />
<glyph unicode="y" horiz-adv-x="915" d="M10 912q3 6 13 6h75q15 0 21 -15l356 -844l328 844q3 15 20 15h68q13 0 13 -11q0 -4 -1 -8l-379 -946q-81 -209 -172 -305q-110 -119 -281 -119h-8q-12 0 -12 12v64q0 12 12 12h31q121 0 211 113q59 75 123 219l-416 950q-2 4 -2 8v5z" />
<glyph unicode="z" horiz-adv-x="780" d="M15 13q0 7 5 14l607 813h-588q-6 0 -10 4.5t-4 9.5v49q0 15 14 15h706q12 0 15.5 -8t-4.5 -19l-606 -813h602q5 0 9.5 -4.5t4.5 -10.5v-49q0 -6 -4.5 -10t-9.5 -4h-721q-16 0 -16 13z" />
<glyph unicode="{" horiz-adv-x="589" d="M53 621v59q0 14 15 14h6q94 0 145 70q55 80 55 252q0 52 -4 156t-4 169q0 131 51 197q59 74 197 74q16 0 16 -13v-51q0 -12 -14 -12q-89 0 -129 -55q-33 -47 -33 -152q0 -58 4 -163t4 -156q0 -169 -59 -260q-49 -77 -133 -99q86 -25 133 -98q59 -91 59 -260 q0 -52 -4 -159t-4 -163q0 -101 33 -151q41 -56 129 -56q14 0 14 -14v-47q0 -14 -16 -14q-141 0 -197 73q-51 66 -51 199q0 62 4 167.5t4 156.5q0 172 -55 252q-48 69 -145 69h-6q-6 0 -10.5 5t-4.5 10z" />
<glyph unicode="|" horiz-adv-x="413" d="M160 -432v1812q0 15 14 15h66q5 0 8.5 -4.5t3.5 -10.5v-1812q0 -14 -12 -14h-66q-14 0 -14 14z" />
<glyph unicode="}" horiz-adv-x="589" d="M59 -252q0 14 15 14q87 0 127 56q32 45 32 153l-6 320q0 168 60 260q49 76 133 98q-86 23 -133 99q-60 92 -60 260l6 319q0 109 -32 154q-38 53 -127 53q-15 0 -15 14v49q0 6 4.5 10.5t10.5 4.5q139 0 198 -76q50 -65 50 -197q0 -65 -4.5 -168.5t-4.5 -154.5 q0 -169 58 -254q48 -70 143 -70h8q5 0 10 -4t5 -10v-57q0 -6 -5 -10.5t-10 -4.5h-8q-94 0 -143 -71q-58 -78 -58 -252q0 -51 4.5 -155.5t4.5 -168.5q0 -132 -50 -197q-61 -75 -198 -75q-15 0 -15 14v47z" />
<glyph unicode="~" horiz-adv-x="1169" d="M109 510q0 62 22 109.5t58.5 74t78 39t86.5 12.5q59 0 111.5 -18.5t92 -45.5t77 -54t83 -45.5t93.5 -18.5q31 0 58.5 7t52.5 23t40 46.5t15 73.5q0 12 16 12h54q14 0 14 -12q0 -63 -22 -110.5t-59 -74t-78.5 -39t-86.5 -12.5q-57 0 -108.5 18.5t-90.5 45.5t-77 54 t-84.5 45.5t-96.5 18.5q-30 0 -57.5 -7t-52.5 -23t-40 -46.5t-15 -72.5q0 -14 -15 -14h-55q-14 0 -14 14z" />
<glyph unicode="&#xa0;" />
<glyph unicode="&#xa1;" horiz-adv-x="425" d="M145 -352q0 26 11 268l28 629q4 14 17 14h26q13 0 17 -14l26 -629q11 -161 11 -268q0 -144 -68 -144t-68 144zM156 874q0 26 16 44t41 18q27 0 44 -17.5t17 -44.5q0 -25 -17 -41t-44 -16q-25 0 -41 16t-16 41z" />
<glyph unicode="&#xa2;" d="M227 459q0 181 107 307q65 75 155 118.5t191 47.5v137q0 6 4.5 10t9.5 4h29q14 0 14 -14v-135q139 -6 248 -76q15 -8 8 -20l-24 -43q-6 -12 -23 -4q-105 67 -233 67q-90 0 -170 -36t-135 -103q-91 -109 -91 -260q0 -181 109 -293q107 -113 289 -113q137 0 237 62 q15 9 23 -2l22 -45q6 -8 -8 -19q-97 -62 -252 -69v-132q0 -14 -14 -14h-29q-5 0 -9.5 4t-4.5 10v132q-203 9 -324 133q-129 132 -129 346z" />
<glyph unicode="&#xa3;" d="M160 14v58q0 4 4 8t8 4h129q58 50 96.5 126.5t38.5 174.5q0 89 -51 219h-152q-5 0 -9.5 4t-4.5 10v54q0 4 4.5 8t9.5 4h119q-78 183 -78 307q0 193 123 307q121 115 318 115q85 0 168.5 -22.5t144.5 -59.5q14 -3 8 -18l-24 -49q-8 -15 -19 -7q-54 33 -127.5 53.5 t-144.5 20.5q-159 0 -258 -96q-94 -94 -94 -248q0 -71 20.5 -140.5t59.5 -162.5h475q14 0 14 -12v-54q0 -14 -14 -14h-445q47 -125 47 -215q0 -172 -125 -305h619q14 0 14 -12v-58q0 -14 -14 -14h-848q-12 0 -12 14z" />
<glyph unicode="&#xa4;" horiz-adv-x="1402" d="M102 233q-10 11 0 21l197 197q-125 147 -125 344q0 200 127 342l-199 194q-8 13 0 21l39 41q11 7 21 0l198 -199q144 131 345 131q195 0 337 -129l199 197q5 5 11.5 5t9.5 -5l38 -39q4 -3 4 -9.5t-4 -11.5l-196 -198q131 -141 131 -340q0 -200 -131 -344l199 -197 q8 -13 0 -21l-41 -40q-8 -8 -21 0l-197 198q-139 -127 -339 -127q-197 0 -347 127l-194 -198q-13 -8 -21 0zM250 795q-1 -187 133 -321t322 -134q122 0 225.5 61t164 166t60.5 228q0 187 -132 318.5t-318 131.5q-188 0 -322 -131.5t-133 -318.5z" />
<glyph unicode="&#xa5;" d="M36 1387.5q3 7.5 13 7.5h80q14 0 23 -15l460 -655l461 655q11 15 25 15h80q11 0 14 -7.5t-4 -13.5l-492 -686h375q5 0 9.5 -5t4.5 -9v-43q0 -5 -5 -10t-9 -5h-409v-194h409q5 0 9.5 -4t4.5 -10v-41q0 -6 -4.5 -10.5t-9.5 -4.5h-409v-338q0 -6 -5 -10t-10 -4h-72 q-12 0 -12 14v338h-409q-6 0 -10.5 4.5t-4.5 10.5v41q0 14 15 14h409v194h-409q-6 0 -10.5 5t-4.5 10v43q0 5 4.5 9.5t10.5 4.5h374l-491 686q-4 6 -1 13.5z" />
<glyph unicode="&#xa6;" horiz-adv-x="413" d="M160 340q0 14 14 14h66q12 0 12 -14v-772q0 -14 -12 -14h-66q-14 0 -14 14v772zM160 608v772q0 15 14 15h66q5 0 8.5 -4.5t3.5 -10.5v-772q0 -14 -12 -14h-66q-14 0 -14 14z" />
<glyph unicode="&#xa7;" horiz-adv-x="907" d="M102 559q0 170 158 293q-110 98 -110 242q0 143 81 227q91 94 250 94q75 0 140 -17.5t97 -35.5t70 -45q16 -8 9 -21l-23 -45q-6 -14 -22 -6q-117 96 -267 96q-116 0 -184 -71q-59 -59 -59 -166q0 -46 15.5 -87t36 -70t60 -61t68 -51t79.5 -50q21 -13 31 -19 q50 -30 82.5 -53t72.5 -59.5t63.5 -72.5t40 -87t16.5 -109q0 -173 -160 -293q113 -101 113 -242q0 -146 -90 -233q-89 -86 -242 -86q-75 0 -141.5 17.5t-96.5 34t-69 42.5q-14 11 -8 23l22 45q3 7 10 8t11 -4q118 -92 270 -92q110 0 174 59q68 65 68 178q0 47 -16 89 t-39.5 71t-63 61t-72.5 52t-83.5 50.5t-80.5 51.5q-100 66 -155.5 145.5t-55.5 196.5zM195 569q0 -63 23 -116t55.5 -88t82.5 -72q34 -24 113 -71t117 -75q129 96 129 228q0 96 -48 162.5t-135 126.5q-13 9 -92 56.5t-118 76.5q-127 -98 -127 -228z" />
<glyph unicode="&#xa8;" horiz-adv-x="802" d="M174 1374q0 24 16 40t41 16q23 0 39.5 -16.5t16.5 -39.5q0 -25 -16.5 -42t-39.5 -17q-25 0 -41 17t-16 42zM514 1374q0 24 16 40t41 16q23 0 39.5 -16.5t16.5 -39.5q0 -25 -16.5 -42t-39.5 -17q-25 0 -41 17t-16 42z" />
<glyph unicode="&#xa9;" horiz-adv-x="1716" d="M102 733q0 154 59.5 294t160.5 241t241 161t295 60q154 0 293.5 -60t240.5 -161t160.5 -241t59.5 -294t-59.5 -293t-160.5 -239.5t-240.5 -159.5t-293.5 -59t-294 59t-241 159.5t-161 239.5t-60 293zM162 733q0 -142 55 -270.5t147.5 -221.5t221.5 -147.5t272 -54.5 t272 54.5t221.5 147.5t147.5 221.5t55 270.5q0 190 -92.5 350.5t-253 254.5t-350.5 94t-350.5 -94t-253 -254.5t-92.5 -350.5zM496 727q0 161 113 269t270 108q110 0 186 -39q44 -18 41 -35q0 -5 -9.5 -21t-13.5 -16q-5 -1 -12 2t-19.5 9.5t-23.5 11.5q-64 31 -149 31 q-131 0 -225.5 -91.5t-94.5 -228.5q0 -145 92.5 -232t229.5 -87q83 0 153 24q10 4 21.5 9t17 7t10.5 1q6 0 15.5 -16t9.5 -23q0 -14 -37 -27q-90 -33 -190 -33q-165 0 -275 102.5t-110 274.5z" />
<glyph unicode="&#xaa;" horiz-adv-x="565" d="M72 1001q0 99 100 146q79 36 260 41v16q0 98 -47 137q-39 27 -92 27q-88 0 -170 -51q-12 -9 -17 2l-10 22q-3 13 8 21q83 53 195 53q78 0 125 -35q68 -52 68 -182v-348q0 -12 -15 -12h-24q-13 0 -13 12v33h-4q-40 -24 -78 -35q-36 -10 -88 -10q-84 0 -139 41 q-59 43 -59 122zM129 1001q0 -61 47 -90q40 -30 107 -30q85 0 149 41v227q-121 -4 -196 -27q-107 -28 -107 -121zM135 557v18q0 6 4.5 10.5t10.5 4.5h264q5 0 8.5 -4.5t3.5 -10.5v-18q0 -14 -12 -14h-264q-15 0 -15 14z" />
<glyph unicode="&#xab;" horiz-adv-x="1103" d="M70 463q0 5 10 20l418 441q12 12 24 12h64q11 0 14 -8t-4 -15l-424 -450l424 -451q7 -8 4 -15t-14 -7h-64q-12 0 -24 12l-418 440q-10 15 -10 21zM506 463q0 5 10 20l416 441q15 12 26 12h64q11 0 14 -8t-4 -15l-424 -450l424 -451q7 -8 4 -15t-14 -7h-64q-11 0 -26 12 l-416 440q-10 15 -10 21z" />
<glyph unicode="&#xac;" horiz-adv-x="1112" d="M72 688v60q0 14 14 14h942q12 0 12 -14v-334q0 -5 -4 -10t-8 -5h-59q-5 0 -10 5.5t-5 9.5v260h-868q-14 0 -14 14z" />
<glyph unicode="&#xad;" horiz-adv-x="1001" d="M178 573v58q0 14 15 14h616q5 0 9.5 -4t4.5 -10v-58q0 -5 -4.5 -9.5t-9.5 -4.5h-616q-6 0 -10.5 4.5t-4.5 9.5z" />
<glyph unicode="&#xae;" horiz-adv-x="960" d="M104 1098q0 157 110 267t265 110q157 0 268 -110t111 -267q0 -155 -110 -265t-267 -110t-267 110t-110 265zM143 1098q0 -140 98.5 -239t239.5 -99t240.5 99t99.5 239q0 142 -100 241t-242 99q-140 0 -238 -99t-98 -241zM330 928v346q0 4 4 8t8 4h150q141 0 141 -108 q0 -94 -111 -105l117 -143q4 -6 2 -10.5t-10 -4.5h-21q-7 0 -16 9l-117 145h-108v-143q0 -11 -13 -11h-16q-10 0 -10 13zM369 1106h116q109 0 109 72q0 73 -105 73h-120v-145z" />
<glyph unicode="&#xaf;" horiz-adv-x="1406" d="M147 1331v49q0 5 4.5 10t10.5 5h477q6 0 10 -5t4 -10v-49q0 -14 -14 -14h-477q-15 0 -15 14z" />
<glyph unicode="&#xb0;" horiz-adv-x="757" d="M102 1214q0 116 81 196.5t196 80.5t195.5 -80.5t80.5 -196.5q0 -115 -80 -194.5t-196 -79.5t-196.5 79.5t-80.5 194.5zM152 1214q0 -95 65 -160t162 -65q95 0 161 65t66 160t-66 161.5t-161 66.5q-96 0 -161.5 -66t-65.5 -162z" />
<glyph unicode="&#xb1;" horiz-adv-x="1130" d="M76 14v58q0 12 14 12h950q6 0 10.5 -3.5t4.5 -8.5v-58q0 -14 -15 -14h-950q-14 0 -14 14zM76 745v58q0 5 4 9.5t10 4.5h432v432q0 6 4.5 10.5t10.5 4.5h57q5 0 9.5 -4.5t4.5 -10.5v-432h432q6 0 10.5 -4.5t4.5 -9.5v-58q0 -14 -15 -14h-432v-434q0 -4 -4.5 -8t-9.5 -4 h-57q-6 0 -10.5 3.5t-4.5 8.5v434h-432q-14 0 -14 14z" />
<glyph unicode="&#xb2;" horiz-adv-x="854" d="M197 696v19q0 66 14.5 108.5t56.5 83.5q41 42 133 92t127 80q56 49 56 121q0 75 -56 121q-47 41 -120 41q-79 0 -166 -55q-12 -12 -19 4l-10 20q-8 14 6 25q98 59 193 59q93 0 159 -57q70 -63 70 -156q0 -95 -72 -160q-39 -34 -128.5 -83t-127.5 -87q-53 -50 -53 -135 h379q5 0 9.5 -4t4.5 -10v-27q0 -6 -4.5 -10t-9.5 -4h-428q-14 0 -14 14z" />
<glyph unicode="&#xb3;" horiz-adv-x="854" d="M213 737l12 23q3 12 19 4q75 -41 155 -41q87 0 138 44.5t51 115.5q0 105 -105 139q-27 8 -84 8h-14q-14 0 -14 14v25q0 12 14 12h12q53 0 90 15q78 31 78 123q0 61 -43 102t-116 41q-75 0 -146 -43q-15 -6 -18 4l-13 23q-9 14 7 22q92 47 174 47q95 0 153 -55t58 -137 q0 -119 -111 -162q135 -48 135 -182q0 -93 -66 -150t-178 -57q-103 0 -182 43q-12 6 -6 22z" />
<glyph unicode="&#xb4;" horiz-adv-x="802" d="M252 1178q0 2 2.5 7t3.5 9l199 354q7 15 18 15h64q12 0 12 -11q0 -2 -4 -14l-217 -356q-9 -15 -23 -15h-43q-12 0 -12 11z" />
<glyph unicode="&#xb5;" horiz-adv-x="1095" d="M141 -334v1237q0 6 4.5 10.5t10.5 4.5h61q5 0 8.5 -4.5t3.5 -10.5v-516q0 -127 45 -207q32 -58 101.5 -91.5t171.5 -33.5t171 33t101 90q25 43 35 89.5t10 119.5v516q0 6 4.5 10.5t10.5 4.5h61q5 0 9.5 -4.5t4.5 -10.5v-520q0 -86 -14 -143t-47 -111q-43 -71 -132.5 -110 t-213.5 -39q-128 0 -207 43q-76 41 -111 120v-477q0 -14 -12 -14h-61q-15 0 -15 14z" />
<glyph unicode="&#xb6;" horiz-adv-x="1155" d="M82 1055q0 198 122.5 305.5t348.5 107.5h537q6 0 10 -4.5t4 -9.5v-51q0 -12 -14 -12h-191v-1786q0 -4 -4.5 -8.5t-9.5 -4.5h-58q-6 0 -10 4t-4 9v1786h-246v-1786q0 -5 -4 -9t-8 -4h-57q-6 0 -10.5 4t-4.5 9v1034q-188 10 -294.5 121t-106.5 295z" />
<glyph unicode="&#xb7;" horiz-adv-x="325" d="M102 707q0 26 18 43.5t44 17.5t43.5 -17.5t17.5 -43.5q0 -28 -17.5 -46t-43.5 -18t-44 18t-18 46z" />
<glyph unicode="&#xb8;" horiz-adv-x="825" d="M152 -340q0 12 14 12q2 0 23.5 -3t46.5 -3q66 0 115.5 28.5t49.5 86.5q0 48 -40 71t-97 23q-21 0 -39 -2l11 137h51v-90q77 -2 128.5 -37.5t51.5 -103.5q0 -47 -22 -81.5t-58 -52t-74 -26t-77 -8.5q-46 0 -70 8q-14 0 -14 12v29z" />
<glyph unicode="&#xb9;" horiz-adv-x="854" d="M238 1294v23q0 13 14 20l172 72q15 6 22 6h17q14 0 14 -14v-664h144q12 0 12 -14v-27q0 -14 -12 -14h-365q-14 0 -14 14v27q0 14 14 14h158v606l-156 -61q-20 -6 -20 12z" />
<glyph unicode="&#xba;" horiz-adv-x="798" d="M111 1126q0 117 71 197q86 92 217 92q135 0 217 -92q74 -80 74 -197q0 -114 -74 -194q-82 -92 -217 -92q-131 0 -217 92q-71 80 -71 194zM170 1126q0 -90 59 -159q60 -76 170 -76q109 0 172 76q58 67 58 159q0 91 -58 162q-63 76 -172 76q-110 0 -170 -76 q-59 -72 -59 -162zM252 557v18q0 15 14 15h264q6 0 10.5 -4.5t4.5 -10.5v-18q0 -14 -15 -14h-264q-14 0 -14 14z" />
<glyph unicode="&#xbb;" horiz-adv-x="1103" d="M66.5 -3q-2.5 7 5.5 15l424 451l-424 450q-8 7 -5.5 15t15.5 8h63q13 0 25 -12l418 -441q10 -15 10 -20q0 -6 -10 -21l-418 -440q-12 -12 -25 -12h-63q-13 0 -15.5 7zM502 -3q-2 7 6 15l424 451l-424 450q-8 7 -6 15t14 8h66q12 0 24 -12l416 -441q12 -12 12 -20 q0 -9 -12 -21l-416 -440q-12 -12 -24 -12h-66q-12 0 -14 7z" />
<glyph unicode="&#xbc;" horiz-adv-x="854" d="M80 471v27q0 14 14 14h662q14 0 14 -14v-27q0 -14 -14 -14h-662q-14 0 -14 14zM127 -221q0 11 12 28l322 461q14 19 37 19h24q5 0 10 -4.5t5 -8.5v-473h106q5 0 8.5 -3.5t3.5 -8.5v-27q0 -14 -12 -14h-106v-172q0 -6 -5 -10t-10 -4h-35q-12 0 -12 14v172h-334 q-14 0 -14 14v17zM203 -199h272v392zM225 1294v23q0 13 13 20l174 72q15 6 22 6h17q12 0 12 -14v-664h143q15 0 15 -14v-27q0 -14 -15 -14h-364q-5 0 -9 4t-4 10v27q0 6 4 10t9 4h157v606l-153 -61q-21 -6 -21 12z" />
<glyph unicode="&#xbd;" horiz-adv-x="854" d="M80 471v27q0 14 14 14h662q14 0 14 -14v-27q0 -14 -14 -14h-662q-14 0 -14 14zM193 -397q0 65 15 108t56 84t133 91t127 81q56 46 56 121q0 74 -54 121q-50 41 -120 41q-79 0 -166 -55q-13 -10 -19 4l-12 20q-6 14 8 25q95 59 191 59q95 0 161 -57q70 -63 70 -156 t-74 -160q-39 -35 -128.5 -84t-127.5 -86q-53 -50 -53 -135h379q14 0 14 -14v-27q0 -14 -14 -14h-428q-14 0 -14 14v19zM225 1294v23q0 13 13 20l174 72q15 6 22 6h17q12 0 12 -14v-664h143q15 0 15 -14v-27q0 -14 -15 -14h-364q-5 0 -9 4t-4 10v27q0 6 4 10t9 4h157v606 l-153 -61q-21 -6 -21 12z" />
<glyph unicode="&#xbe;" horiz-adv-x="854" d="M80 471v27q0 14 14 14h662q14 0 14 -14v-27q0 -14 -14 -14h-662q-14 0 -14 14zM127 -221q0 11 12 28l322 461q14 19 37 19h24q5 0 10 -4.5t5 -8.5v-473h106q5 0 8.5 -3.5t3.5 -8.5v-27q0 -14 -12 -14h-106v-172q0 -6 -5 -10t-10 -4h-35q-12 0 -12 14v172h-334 q-14 0 -14 14v17zM188 737l13 23q3 12 18 4q75 -41 156 -41q87 0 137.5 44.5t50.5 115.5q0 106 -104 139q-27 8 -84 8h-15q-14 0 -14 14v25q0 12 14 12h13q53 0 90 15q78 31 78 123q0 61 -43.5 102t-116.5 41q-74 0 -145 -43q-16 -7 -19 4l-12 23q-9 14 6 22q92 47 174 47 q95 0 153 -55t58 -137q0 -119 -111 -162q136 -48 136 -182q0 -93 -66 -150t-178 -57q-103 0 -182 43q-13 7 -7 22zM203 -199h272v392z" />
<glyph unicode="&#xbf;" horiz-adv-x="1024" d="M94 -94q0 49 11.5 91.5t28.5 73.5t47 62.5t56.5 53.5t67.5 51q122 89 164 156t45 175q0 6 4.5 10.5t9.5 4.5h43q14 0 17 -13q8 -36 8 -67q0 -53 -25.5 -109.5t-70.5 -103.5q-23 -24 -52.5 -48t-72.5 -57t-72 -57q-117 -96 -117 -223q0 -148 99 -234q88 -82 233 -82 q216 0 389 160q6 6 13 5t10 -7l26 -47q6 -11 -10 -27q-183 -170 -430 -170q-179 0 -299 107q-123 117 -123 295zM500 877q0 26 17 43.5t42 17.5q26 0 44 -17.5t18 -43.5q0 -25 -18 -42.5t-44 -17.5q-25 0 -42 17.5t-17 42.5z" />
<glyph unicode="&#xc0;" horiz-adv-x="1265" d="M10 10q0 9 4 17l559 1355q5 19 23 19h72q17 0 22 -19l559 -1353q6 -18 6 -19q0 -10 -14 -10h-72q-17 0 -20 14l-150 361h-739l-147 -361q-7 -14 -21 -14h-67q-15 0 -15 10zM289 455h684l-342 825zM483 1972q0 10 13 10h63q12 0 19 -14l198 -354q1 -4 3.5 -9.5t2.5 -7.5 q0 -10 -12 -10h-45q-11 0 -20 15l-218 356q-4 12 -4 14z" />
<glyph unicode="&#xc1;" horiz-adv-x="1265" d="M10 10q0 9 4 17l559 1355q5 19 23 19h72q17 0 22 -19l559 -1353q6 -18 6 -19q0 -10 -14 -10h-72q-17 0 -20 14l-150 361h-739l-147 -361q-7 -14 -21 -14h-67q-15 0 -15 10zM289 455h684l-342 825zM481 1597q0 2 2.5 7.5t3.5 9.5l199 354q7 14 19 14h63q12 0 12 -10 q0 -2 -4 -14l-217 -356q-9 -15 -22 -15h-43q-13 0 -13 10z" />
<glyph unicode="&#xc2;" horiz-adv-x="1265" d="M10 10q0 9 4 17l559 1355q5 19 23 19h72q17 0 22 -19l559 -1353q6 -18 6 -19q0 -10 -14 -10h-72q-17 0 -20 14l-150 361h-739l-147 -361q-7 -14 -21 -14h-67q-15 0 -15 10zM258 1590.5q-2 5.5 4 13.5l332 364q9 12 20 12h33q12 0 21 -12l329 -364q6 -8 4.5 -13.5 t-10.5 -5.5h-53q-17 0 -27 12l-280 308l-283 -308q-10 -12 -24 -12h-54q-10 0 -12 5.5zM289 455h684l-342 825z" />
<glyph unicode="&#xc3;" horiz-adv-x="1265" d="M10 10q0 9 4 17l559 1355q5 19 23 19h72q17 0 22 -19l559 -1353q6 -18 6 -19q0 -10 -14 -10h-72q-17 0 -20 14l-150 361h-739l-147 -361q-7 -14 -21 -14h-67q-15 0 -15 10zM289 455h684l-342 825zM334 1788q0 66 41.5 106.5t113.5 40.5q68 0 154 -53q27 -18 42.5 -27.5 t39 -17.5t45.5 -8q89 0 98 78q0 16 15 16h28q19 0 19 -16q0 -67 -41.5 -107.5t-112.5 -40.5q-60 0 -149 56q-77 51 -131 51q-91 0 -101 -80q0 -17 -14 -17h-29q-18 0 -18 19z" />
<glyph unicode="&#xc4;" horiz-adv-x="1265" d="M10 10q0 9 4 17l559 1355q5 19 23 19h72q17 0 22 -19l559 -1353q6 -18 6 -19q0 -10 -14 -10h-72q-17 0 -20 14l-150 361h-739l-147 -361q-7 -14 -21 -14h-67q-15 0 -15 10zM289 455h684l-342 825zM406 1790q0 23 16 39t41 16q23 0 39 -16t16 -39q0 -25 -16 -42t-39 -17 q-25 0 -41 17t-16 42zM745 1790q0 23 16.5 39t41.5 16q23 0 39 -16t16 -39q0 -25 -16 -42t-39 -17q-25 0 -41.5 17t-16.5 42z" />
<glyph unicode="&#xc5;" horiz-adv-x="1265" d="M10 10q0 9 4 17l559 1355q5 19 23 19h72q17 0 22 -19l559 -1353q6 -18 6 -19q0 -10 -14 -10h-72q-17 0 -20 14l-150 361h-739l-147 -361q-7 -14 -21 -14h-67q-15 0 -15 10zM289 455h684l-342 825zM401 1769q0 97 67.5 164.5t164.5 67.5q95 0 162 -67.5t67 -164.5 t-67 -164t-162 -67q-97 0 -164.5 67t-67.5 164zM453 1769q0 -75 52.5 -127.5t127.5 -52.5q74 0 126 52t52 128q0 75 -52 128t-126 53q-75 0 -127.5 -53t-52.5 -128z" />
<glyph unicode="&#xc6;" horiz-adv-x="2004" d="M8 7q-3 7 4 18l1041 1351q16 19 39 19h829q14 0 14 -15v-59q0 -5 -4 -9.5t-10 -4.5h-756v-566h652q4 0 8 -4.5t4 -9.5v-59q0 -6 -3.5 -10.5t-8.5 -4.5h-652v-567h756q14 0 14 -14v-58q0 -14 -14 -14h-840q-14 0 -14 14v361h-664l-276 -361q-11 -14 -27 -14h-77 q-12 0 -15 7zM465 455h602v784z" />
<glyph unicode="&#xc7;" horiz-adv-x="1353" d="M102 698q0 190 97 355t263 262.5t359 97.5q235 0 432 -117q16 -12 11 -26l-27 -56q-7 -11 -25 -4q-180 115 -391 115q-123 0 -237.5 -51t-197 -135.5t-132 -200.5t-49.5 -240q0 -139 50 -258t134.5 -200t197 -126.5t236.5 -45.5q211 0 394 114q16 10 22 -4l27 -57 q8 -13 -9 -23q-187 -113 -413 -118v-60q77 -2 128.5 -37.5t51.5 -103.5q0 -47 -22 -81.5t-58 -52t-74 -26t-77 -8.5q-46 0 -70 8q-14 0 -14 12v29q0 12 14 12q2 0 23.5 -3t46.5 -3q66 0 115.5 28.5t49.5 86.5q0 48 -40 71t-97 23q-21 0 -39 -2l9 109q-142 5 -268 58.5 t-219.5 145t-147.5 224.5t-54 288z" />
<glyph unicode="&#xc8;" horiz-adv-x="1202" d="M160 14v1366q0 15 14 15h944q6 0 10.5 -4.5t4.5 -10.5v-59q0 -5 -4.5 -9.5t-10.5 -4.5h-860v-566h756q4 0 9 -4.5t5 -9.5v-59q0 -6 -4.5 -10.5t-9.5 -4.5h-756v-567h860q15 0 15 -14v-58q0 -14 -15 -14h-944q-14 0 -14 14zM444 1972q0 10 13 10h63q12 0 19 -14l198 -354 q1 -4 3.5 -9.5t2.5 -7.5q0 -10 -12 -10h-45q-11 0 -20 15l-217 356q-1 2 -2 5t-2 5t-1 4z" />
<glyph unicode="&#xc9;" horiz-adv-x="1202" d="M160 14v1366q0 15 14 15h944q6 0 10.5 -4.5t4.5 -10.5v-59q0 -5 -4.5 -9.5t-10.5 -4.5h-860v-566h756q4 0 9 -4.5t5 -9.5v-59q0 -6 -4.5 -10.5t-9.5 -4.5h-756v-567h860q15 0 15 -14v-58q0 -14 -15 -14h-944q-14 0 -14 14zM518 1597q0 2 2.5 7.5t3.5 9.5l199 354 q7 14 18 14h64q12 0 12 -10q0 -2 -4 -14l-217 -356q-9 -15 -23 -15h-43q-12 0 -12 10z" />
<glyph unicode="&#xca;" horiz-adv-x="1202" d="M160 14v1366q0 15 14 15h944q6 0 10.5 -4.5t4.5 -10.5v-59q0 -5 -4.5 -9.5t-10.5 -4.5h-860v-566h756q4 0 9 -4.5t5 -9.5v-59q0 -6 -4.5 -10.5t-9.5 -4.5h-756v-567h860q15 0 15 -14v-58q0 -14 -15 -14h-944q-14 0 -14 14zM248 1590.5q-2 5.5 4 13.5l332 364q9 12 20 12 h33q11 0 20 -12l330 -364q6 -8 4.5 -13.5t-10.5 -5.5h-53q-17 0 -27 12l-280 308l-283 -308q-10 -12 -25 -12h-53q-10 0 -12 5.5z" />
<glyph unicode="&#xcb;" horiz-adv-x="1202" d="M160 14v1366q0 15 14 15h944q6 0 10.5 -4.5t4.5 -10.5v-59q0 -5 -4.5 -9.5t-10.5 -4.5h-860v-566h756q4 0 9 -4.5t5 -9.5v-59q0 -6 -4.5 -10.5t-9.5 -4.5h-756v-567h860q15 0 15 -14v-58q0 -14 -15 -14h-944q-14 0 -14 14zM408 1790q0 23 16 39t41 16q23 0 39 -16t16 -39 q0 -25 -16 -42t-39 -17q-25 0 -41 17t-16 42zM748 1790q0 23 16 39t41 16q23 0 39 -16t16 -39q0 -25 -16 -42t-39 -17q-25 0 -41 17t-16 42z" />
<glyph unicode="&#xcc;" horiz-adv-x="419" d="M57 1972q0 10 13 10h63q12 0 19 -14l198 -354q1 -4 3.5 -9.5t2.5 -7.5q0 -10 -12 -10h-45q-11 0 -20 15l-218 356q-4 12 -4 14zM160 14v1366q0 15 14 15h70q14 0 14 -15v-1366q0 -14 -14 -14h-70q-14 0 -14 14z" />
<glyph unicode="&#xcd;" horiz-adv-x="419" d="M63 1597q0 2 3 7.5t4 9.5l198 354q7 14 19 14h63q12 0 12 -10q0 -2 -4 -14l-217 -356q-9 -15 -22 -15h-43q-13 0 -13 10zM160 14v1366q0 15 14 15h70q14 0 14 -15v-1366q0 -14 -14 -14h-70q-14 0 -14 14z" />
<glyph unicode="&#xce;" horiz-adv-x="419" d="M-164 1590.5q-2 5.5 4 13.5l332 364q9 12 21 12h32q12 0 21 -12l329 -364q6 -8 4.5 -13.5t-10.5 -5.5h-53q-17 0 -27 12l-280 308l-283 -308q-10 -12 -24 -12h-54q-10 0 -12 5.5zM160 14v1366q0 15 14 15h70q14 0 14 -15v-1366q0 -14 -14 -14h-70q-14 0 -14 14z" />
<glyph unicode="&#xcf;" horiz-adv-x="419" d="M-16 1790q0 23 16 39t41 16q23 0 39 -16t16 -39q0 -25 -16 -42t-39 -17q-25 0 -41 17t-16 42zM160 14v1366q0 15 14 15h70q14 0 14 -15v-1366q0 -14 -14 -14h-70q-14 0 -14 14zM324 1790q0 23 16 39t41 16q23 0 39 -16t16 -39q0 -25 -16 -42t-39 -17q-25 0 -41 17t-16 42 z" />
<glyph unicode="&#xd0;" horiz-adv-x="1511" d="M-39 670v53q0 6 4.5 10t9.5 4h191v643q0 15 14 15h486q383 0 583 -224q160 -184 160 -475q0 -207 -81.5 -358.5t-235.5 -237.5q-182 -100 -459 -100h-453q-14 0 -14 14v641h-191q-5 0 -9.5 4.5t-4.5 10.5zM264 84h361q244 0 403 86q136 72 208.5 205t72.5 321 q0 260 -138 420q-84 96 -218 145.5t-304 49.5h-385v-574h367q12 0 12 -14v-53q0 -6 -3.5 -10.5t-8.5 -4.5h-367v-571z" />
<glyph unicode="&#xd1;" horiz-adv-x="1511" d="M160 14v1366q0 15 14 15h68q15 0 26 -17l987 -1224v1226q0 6 5 10.5t10 4.5h67q6 0 10.5 -4.5t4.5 -10.5v-1366q0 -14 -15 -14h-69q-17 0 -29 14l-983 1223v-1223q0 -6 -4.5 -10t-9.5 -4h-68q-14 0 -14 14zM457 1788q0 66 41.5 106.5t113.5 40.5q68 0 154 -53 q27 -18 42.5 -27.5t39 -17.5t45.5 -8q89 0 98 78q0 16 15 16h28q19 0 19 -16q0 -67 -41.5 -107.5t-112.5 -40.5q-60 0 -149 56q-77 51 -132 51q-90 0 -100 -80q0 -17 -14 -17h-29q-18 0 -18 19z" />
<glyph unicode="&#xd2;" horiz-adv-x="1646" d="M102 694q0 145 57.5 278.5t154 230t230 153.5t279.5 57t279.5 -57t230 -153.5t154 -230t57.5 -278.5q0 -194 -97 -358.5t-263 -260t-361 -95.5t-361 95.5t-263 260t-97 358.5zM207 694q0 -126 48 -241.5t130 -199.5t196.5 -133.5t241.5 -49.5q170 0 312.5 84.5t224.5 228 t82 311.5q0 167 -82 311t-225 230t-312 86t-311.5 -86t-223.5 -230t-81 -311zM670 1972q0 10 12 10h63q12 0 19 -14l199 -354q1 -4 3.5 -9.5t2.5 -7.5q0 -10 -13 -10h-45q-11 0 -20 15l-217 356q-4 12 -4 14z" />
<glyph unicode="&#xd3;" horiz-adv-x="1646" d="M102 694q0 145 57.5 278.5t154 230t230 153.5t279.5 57t279.5 -57t230 -153.5t154 -230t57.5 -278.5q0 -194 -97 -358.5t-263 -260t-361 -95.5t-361 95.5t-263 260t-97 358.5zM207 694q0 -126 48 -241.5t130 -199.5t196.5 -133.5t241.5 -49.5q170 0 312.5 84.5t224.5 228 t82 311.5q0 167 -82 311t-225 230t-312 86t-311.5 -86t-223.5 -230t-81 -311zM676 1597q0 2 2.5 7.5t3.5 9.5l199 354q7 14 18 14h64q12 0 12 -10q0 -2 -4 -14l-217 -356q-9 -15 -23 -15h-43q-12 0 -12 10z" />
<glyph unicode="&#xd4;" horiz-adv-x="1646" d="M102 694q0 145 57.5 278.5t154 230t230 153.5t279.5 57t279.5 -57t230 -153.5t154 -230t57.5 -278.5q0 -194 -97 -358.5t-263 -260t-361 -95.5t-361 95.5t-263 260t-97 358.5zM207 694q0 -126 48 -241.5t130 -199.5t196.5 -133.5t241.5 -49.5q170 0 312.5 84.5t224.5 228 t82 311.5q0 167 -82 311t-225 230t-312 86t-311.5 -86t-223.5 -230t-81 -311zM449 1590.5q-2 5.5 4 13.5l331 364q9 12 21 12h33q11 0 20 -12l330 -364q6 -8 4.5 -13.5t-10.5 -5.5h-54q-16 0 -26 12l-281 308l-282 -308q-10 -12 -25 -12h-53q-10 0 -12 5.5z" />
<glyph unicode="&#xd5;" horiz-adv-x="1646" d="M102 694q0 145 57.5 278.5t154 230t230 153.5t279.5 57t279.5 -57t230 -153.5t154 -230t57.5 -278.5q0 -194 -97 -358.5t-263 -260t-361 -95.5t-361 95.5t-263 260t-97 358.5zM207 694q0 -126 48 -241.5t130 -199.5t196.5 -133.5t241.5 -49.5q170 0 312.5 84.5t224.5 228 t82 311.5q0 167 -82 311t-225 230t-312 86t-311.5 -86t-223.5 -230t-81 -311zM522 1788q0 66 42 106.5t114 40.5q67 0 153 -53q27 -18 42.5 -27.5t39 -17.5t45.5 -8q90 0 99 78q0 16 14 16h29q18 0 18 -16q0 -67 -41 -107.5t-112 -40.5q-61 0 -150 56q-77 51 -131 51 q-90 0 -100 -80q0 -17 -15 -17h-28q-19 0 -19 19z" />
<glyph unicode="&#xd6;" horiz-adv-x="1646" d="M102 694q0 145 57.5 278.5t154 230t230 153.5t279.5 57t279.5 -57t230 -153.5t154 -230t57.5 -278.5q0 -194 -97 -358.5t-263 -260t-361 -95.5t-361 95.5t-263 260t-97 358.5zM207 694q0 -126 48 -241.5t130 -199.5t196.5 -133.5t241.5 -49.5q170 0 312.5 84.5t224.5 228 t82 311.5q0 167 -82 311t-225 230t-312 86t-311.5 -86t-223.5 -230t-81 -311zM596 1790q0 23 16 39t41 16q23 0 39.5 -16t16.5 -39q0 -25 -16.5 -42t-39.5 -17q-25 0 -41 17t-16 42zM936 1790q0 23 16 39t41 16q23 0 39.5 -16t16.5 -39q0 -25 -16.5 -42t-39.5 -17 q-25 0 -41 17t-16 42z" />
<glyph unicode="&#xd7;" horiz-adv-x="948" d="M58 361.5q0 6.5 3 9.5l353 352l-353 350q-8 11 0 19l41 43q11 8 19 0l352 -353l352 353q3 3 9.5 3t9.5 -3l41 -41q11 -11 0 -19l-350 -352l350 -352q5 -3 5 -9.5t-5 -9.5l-41 -43q-3 -3 -9.5 -3t-9.5 3l-352 353l-352 -351q-8 -11 -19 0l-41 41q-3 3 -3 9.5z" />
<glyph unicode="&#xd8;" horiz-adv-x="1646" d="M102 694q0 145 57.5 278.5t154 230t230 153.5t279.5 57q247 0 441 -151l102 118q15 15 23 15h55q8 0 11 -7.5t-3 -13.5l-135 -157q106 -100 166.5 -236t60.5 -287q0 -194 -97 -358.5t-263 -260t-361 -95.5q-247 0 -442 149l-98 -115q-11 -14 -21 -14h-59q-8 0 -11.5 4 t3.5 12l135 158q-107 99 -167.5 233.5t-60.5 286.5zM207 694q0 -129 48.5 -245t135.5 -203l811 942q-169 133 -379 133q-169 0 -311.5 -86t-223.5 -230t-81 -311zM442 201q166 -131 381 -131q170 0 312.5 84.5t224.5 228t82 311.5q0 127 -50 244.5t-139 204.5z" />
<glyph unicode="&#xd9;" horiz-adv-x="1476" d="M156 551v829q0 6 4.5 10.5t9.5 4.5h72q5 0 8.5 -4.5t3.5 -10.5v-815q0 -228 123 -360q128 -137 360 -137q236 0 361 137q123 132 123 360v815q0 15 14 15h70q14 0 14 -15v-829q0 -255 -137 -401q-156 -170 -445 -170t-442 170q-139 148 -139 401zM586 1972q0 10 12 10h64 q11 0 18 -14l199 -354q1 -4 3.5 -9.5t2.5 -7.5q0 -10 -13 -10h-45q-11 0 -20 15l-217 356q-4 12 -4 14z" />
<glyph unicode="&#xda;" horiz-adv-x="1476" d="M156 551v829q0 6 4.5 10.5t9.5 4.5h72q5 0 8.5 -4.5t3.5 -10.5v-815q0 -228 123 -360q128 -137 360 -137q236 0 361 137q123 132 123 360v815q0 15 14 15h70q14 0 14 -15v-829q0 -255 -137 -401q-156 -170 -445 -170t-442 170q-139 148 -139 401zM590 1597q0 2 2.5 7.5 t3.5 9.5l199 354q7 14 18 14h64q12 0 12 -10q0 -2 -4 -14l-217 -356q-9 -15 -23 -15h-43q-12 0 -12 10z" />
<glyph unicode="&#xdb;" horiz-adv-x="1476" d="M156 551v829q0 6 4.5 10.5t9.5 4.5h72q5 0 8.5 -4.5t3.5 -10.5v-815q0 -228 123 -360q128 -137 360 -137q236 0 361 137q123 132 123 360v815q0 15 14 15h70q14 0 14 -15v-829q0 -255 -137 -401q-156 -170 -445 -170t-442 170q-139 148 -139 401zM365 1590.5 q-2 5.5 4 13.5l331 364q9 12 21 12h33q11 0 20 -12l330 -364q6 -8 4.5 -13.5t-10.5 -5.5h-54q-16 0 -26 12l-281 308l-282 -308q-10 -12 -25 -12h-53q-10 0 -12 5.5z" />
<glyph unicode="&#xdc;" horiz-adv-x="1476" d="M156 551v829q0 6 4.5 10.5t9.5 4.5h72q5 0 8.5 -4.5t3.5 -10.5v-815q0 -228 123 -360q128 -137 360 -137q236 0 361 137q123 132 123 360v815q0 15 14 15h70q14 0 14 -15v-829q0 -255 -137 -401q-156 -170 -445 -170t-442 170q-139 148 -139 401zM512 1790q0 23 16 39 t41 16q23 0 39.5 -16t16.5 -39q0 -25 -16.5 -42t-39.5 -17q-25 0 -41 17t-16 42zM852 1790q0 23 16 39t41 16q23 0 39.5 -16t16.5 -39q0 -25 -16.5 -42t-39.5 -17q-25 0 -41 17t-16 42z" />
<glyph unicode="&#xdd;" horiz-adv-x="1196" d="M3 1388q2 7 13 7h80q14 0 23 -15l477 -655l479 655q7 15 23 15h82q10 0 12 -7t-4 -16l-543 -743v-615q0 -14 -12 -14h-72q-5 0 -9.5 4t-4.5 10v615l-539 743q-7 9 -5 16zM457 1597q0 2 2.5 7.5t3.5 9.5l199 354q7 14 18 14h63q13 0 13 -10q0 -2 -4 -14l-217 -356 q-9 -15 -23 -15h-43q-12 0 -12 10z" />
<glyph unicode="&#xde;" horiz-adv-x="1261" d="M160 12v1368q0 15 14 15h70q14 0 14 -15v-241h449q194 0 315 -92q160 -125 160 -353q0 -113 -46 -206.5t-126 -151.5q-120 -86 -334 -86h-418v-238q0 -12 -14 -12h-70q-14 0 -14 12zM258 336h401q188 0 283 67q66 46 103.5 122.5t37.5 168.5q0 188 -129 281 q-101 78 -266 78h-430v-717z" />
<glyph unicode="&#xdf;" horiz-adv-x="1099" d="M156 -117v1133q0 181 77 280q94 117 277 117q177 0 268 -82q84 -74 84 -207q0 -57 -21.5 -102.5t-54 -71.5t-70 -48t-70 -35t-54 -29.5t-21.5 -34.5q0 -16 12.5 -30.5t37 -29t49 -26.5t60 -28.5t58.5 -29.5q45 -24 79.5 -49.5t66 -63t48.5 -88t17 -112.5 q0 -165 -116 -272q-108 -94 -271 -94q-204 0 -319 100q-11 9 -6 22l24 45q8 15 23 3q105 -93 278 -93q134 0 213 76q90 84 90 209q0 44 -14 82t-32 63.5t-53 53.5t-57 41.5t-65 38.5q-17 9 -51 26.5t-51 26.5t-41.5 25t-36 29.5t-20.5 32.5t-9 40q0 33 29.5 57t71.5 42.5 t84.5 41.5t72 67.5t29.5 106.5q0 102 -61 160q-67 61 -199 61q-140 0 -209 -92q-57 -77 -57 -229v-1133q0 -4 -5 -8t-10 -4h-61q-14 0 -14 12z" />
<glyph unicode="&#xe0;" horiz-adv-x="962" d="M96 244q0 171 197 243q145 50 438 64v35q0 141 -57 207q-61 73 -195 73q-169 0 -295 -88q-17 -8 -22 4l-21 39q-3 14 9 23q143 92 337 92q176 0 258 -96q76 -93 76 -254v-572q0 -6 -4.5 -10t-9.5 -4h-53q-15 0 -15 14v39h-8q-72 -40 -139.5 -56.5t-153.5 -16.5 q-139 0 -233 61q-109 68 -109 203zM180 248q0 -103 92 -158q70 -45 189 -45q150 0 270 72v370q-228 0 -369 -43q-182 -58 -182 -196zM330 1554q0 11 12 11h64q10 0 18 -15l199 -354q1 -4 3.5 -9t2.5 -7q0 -11 -13 -11h-45q-11 0 -20 15l-217 356q-4 12 -4 14z" />
<glyph unicode="&#xe1;" horiz-adv-x="962" d="M96 244q0 171 197 243q145 50 438 64v35q0 141 -57 207q-61 73 -195 73q-169 0 -295 -88q-17 -8 -22 4l-21 39q-3 14 9 23q143 92 337 92q176 0 258 -96q76 -93 76 -254v-572q0 -6 -4.5 -10t-9.5 -4h-53q-15 0 -15 14v39h-8q-72 -40 -139.5 -56.5t-153.5 -16.5 q-139 0 -233 61q-109 68 -109 203zM180 248q0 -103 92 -158q70 -45 189 -45q150 0 270 72v370q-228 0 -369 -43q-182 -58 -182 -196zM334 1178q0 2 2.5 7t3.5 9l199 354q7 15 18 15h64q12 0 12 -11q0 -2 -4 -14l-217 -356q-9 -15 -23 -15h-43q-12 0 -12 11z" />
<glyph unicode="&#xe2;" horiz-adv-x="993" d="M96 244q0 171 197 243q145 50 438 64v35q0 141 -57 207q-61 73 -195 73q-169 0 -295 -88q-17 -8 -22 4l-21 39q-3 14 9 23q143 92 337 92q176 0 258 -96q76 -93 76 -254v-572q0 -6 -4.5 -10t-9.5 -4h-53q-15 0 -15 14v39h-8q-72 -40 -139.5 -56.5t-153.5 -16.5 q-139 0 -233 61q-109 68 -109 203zM107 1172.5q-2 5.5 4 13.5l331 364q10 13 21 13h33q10 0 20 -13l330 -364q6 -8 4.5 -13.5t-10.5 -5.5h-54q-16 0 -26 13l-281 307l-282 -307q-10 -13 -25 -13h-53q-10 0 -12 5.5zM180 248q0 -103 92 -158q70 -45 189 -45q150 0 270 72v370 q-228 0 -369 -43q-182 -58 -182 -196z" />
<glyph unicode="&#xe3;" horiz-adv-x="962" d="M96 244q0 171 197 243q145 50 438 64v35q0 141 -57 207q-61 73 -195 73q-169 0 -295 -88q-17 -8 -22 4l-21 39q-3 14 9 23q143 92 337 92q176 0 258 -96q76 -93 76 -254v-572q0 -6 -4.5 -10t-9.5 -4h-53q-15 0 -15 14v39h-8q-72 -40 -139.5 -56.5t-153.5 -16.5 q-139 0 -233 61q-109 68 -109 203zM178 1307q0 66 42 106.5t114 40.5q67 0 153 -53q27 -18 42.5 -27.5t39 -17.5t45.5 -8q90 0 99 77q0 17 14 17h29q18 0 18 -17q0 -67 -41 -107t-112 -40q-63 0 -150 55q-77 51 -131 51q-90 0 -100 -79q0 -17 -15 -17h-28q-19 0 -19 19z M180 248q0 -103 92 -158q70 -45 189 -45q150 0 270 72v370q-228 0 -369 -43q-182 -58 -182 -196z" />
<glyph unicode="&#xe4;" horiz-adv-x="962" d="M96 244q0 171 197 243q145 50 438 64v35q0 141 -57 207q-61 73 -195 73q-169 0 -295 -88q-17 -8 -22 4l-21 39q-3 14 9 23q143 92 337 92q176 0 258 -96q76 -93 76 -254v-572q0 -6 -4.5 -10t-9.5 -4h-53q-15 0 -15 14v39h-8q-72 -40 -139.5 -56.5t-153.5 -16.5 q-139 0 -233 61q-109 68 -109 203zM180 248q0 -103 92 -158q70 -45 189 -45q150 0 270 72v370q-228 0 -369 -43q-182 -58 -182 -196zM252 1374q0 24 16 40t41 16q23 0 39.5 -16.5t16.5 -39.5q0 -25 -16.5 -42t-39.5 -17q-25 0 -41 17t-16 42zM592 1374q0 24 16 40t41 16 q23 0 39.5 -16.5t16.5 -39.5q0 -25 -16.5 -42t-39.5 -17q-25 0 -41 17t-16 42z" />
<glyph unicode="&#xe5;" horiz-adv-x="962" d="M96 244q0 171 197 243q145 50 438 64v35q0 141 -57 207q-61 73 -195 73q-169 0 -295 -88q-17 -8 -22 4l-21 39q-3 14 9 23q143 92 337 92q176 0 258 -96q76 -93 76 -254v-572q0 -6 -4.5 -10t-9.5 -4h-53q-15 0 -15 14v39h-8q-72 -40 -139.5 -56.5t-153.5 -16.5 q-139 0 -233 61q-109 68 -109 203zM180 248q0 -103 92 -158q70 -45 189 -45q150 0 270 72v370q-228 0 -369 -43q-182 -58 -182 -196zM248 1350q0 97 67 164t164 67q95 0 162.5 -67.5t67.5 -163.5q0 -97 -67.5 -164.5t-162.5 -67.5q-97 0 -164 67.5t-67 164.5zM299 1350 q0 -75 52.5 -128t127.5 -53q74 0 126 52.5t52 128.5q0 75 -52 127.5t-126 52.5q-75 0 -127.5 -52.5t-52.5 -127.5z" />
<glyph unicode="&#xe6;" horiz-adv-x="1705" d="M96 238q0 135 172 202q87 34 217 51t246 19v76q0 141 -57 207q-61 73 -195 73q-167 0 -295 -88q-19 -9 -22 4l-21 39q-3 14 9 23q143 92 337 92q128 0 199 -51q81 -60 109 -197q44 114 141 178q103 70 248 70q200 0 321 -141q106 -121 103 -330q0 -16 -19 -16h-766 q3 -152 86 -263q112 -137 303 -137q160 0 308 90q16 9 24 -2l21 -39q5 -10 -9 -20q-66 -41 -157.5 -69.5t-192.5 -28.5q-238 0 -368 165q-101 -95 -193 -129q-95 -36 -229 -36q-139 0 -226 69q-94 69 -94 189zM180 240q0 -94 78 -144q71 -49 180 -49q117 0 199 33 q85 36 168 113q-72 112 -72 253q-100 0 -219 -14.5t-197 -42.5q-137 -49 -137 -149zM823 510h699q-3 153 -88 248q-44 48 -109 78t-141 30q-179 0 -275 -121q-80 -95 -86 -235z" />
<glyph unicode="&#xe7;" horiz-adv-x="954" d="M98 459q0 181 107 307q68 81 167.5 124.5t211.5 43.5q156 0 274 -76q14 -7 6 -20l-24 -43q-4 -14 -21 -4q-108 67 -235 67q-90 0 -169 -36t-136 -103q-91 -109 -91 -260q0 -181 109 -293q110 -113 289 -113q137 0 237 62q16 8 23 -2l22 -45q7 -9 -6 -19q-95 -62 -258 -69 v-60q77 -2 128.5 -37.5t51.5 -103.5q0 -47 -22 -81.5t-58 -52t-74 -26t-77 -8.5q-46 0 -70 8q-14 0 -14 12v29q0 12 14 12q2 0 23.5 -3t46.5 -3q66 0 116 28.5t50 86.5q0 48 -40 71t-97 23q-21 0 -39 -2l8 109q-202 9 -324 131q-129 135 -129 346z" />
<glyph unicode="&#xe8;" horiz-adv-x="1073" d="M98 469q0 199 117 328q123 139 336 139q200 0 321 -141q109 -124 103 -330q0 -16 -19 -16h-766q3 -153 89 -263q52 -65 129.5 -101t171.5 -36q165 0 307 90q16 9 24 -2l21 -39q5 -10 -8 -20q-66 -41 -158 -69.5t-191 -28.5q-229 0 -364 157q-113 129 -113 332zM190 510 h699q-3 153 -88 248q-44 48 -109 78t-141 30q-179 0 -275 -121q-76 -91 -86 -235zM387 1554q0 11 12 11h64q11 0 18 -15l199 -354q1 -4 3.5 -9t2.5 -7q0 -11 -12 -11h-45q-12 0 -21 15l-217 356q-4 12 -4 14z" />
<glyph unicode="&#xe9;" horiz-adv-x="1073" d="M98 469q0 199 117 328q123 139 336 139q200 0 321 -141q109 -124 103 -330q0 -16 -19 -16h-766q3 -153 89 -263q52 -65 129.5 -101t171.5 -36q165 0 307 90q16 9 24 -2l21 -39q5 -10 -8 -20q-66 -41 -158 -69.5t-191 -28.5q-229 0 -364 157q-113 129 -113 332zM190 510 h699q-3 153 -88 248q-44 48 -109 78t-141 30q-179 0 -275 -121q-76 -91 -86 -235zM387 1178q0 2 2.5 7t3.5 9l199 354q8 15 18 15h64q12 0 12 -11q0 -2 -4 -14l-217 -356q-9 -15 -23 -15h-43q-12 0 -12 11z" />
<glyph unicode="&#xea;" horiz-adv-x="1073" d="M98 469q0 199 117 328q123 139 336 139q200 0 321 -141q109 -124 103 -330q0 -16 -19 -16h-766q3 -153 89 -263q52 -65 129.5 -101t171.5 -36q165 0 307 90q16 9 24 -2l21 -39q5 -10 -8 -20q-66 -41 -158 -69.5t-191 -28.5q-229 0 -364 157q-113 129 -113 332z M162 1172.5q-2 5.5 4 13.5l332 364q10 13 20 13h33q10 0 20 -13l330 -364q6 -8 4.5 -13.5t-10.5 -5.5h-53q-17 0 -27 13l-280 307l-283 -307q-10 -13 -25 -13h-53q-10 0 -12 5.5zM190 510h699q-3 153 -88 248q-44 48 -109 78t-141 30q-179 0 -275 -121q-76 -91 -86 -235z " />
<glyph unicode="&#xeb;" horiz-adv-x="1073" d="M98 469q0 199 117 328q123 139 336 139q200 0 321 -141q109 -124 103 -330q0 -16 -19 -16h-766q3 -153 89 -263q52 -65 129.5 -101t171.5 -36q165 0 307 90q16 9 24 -2l21 -39q5 -10 -8 -20q-66 -41 -158 -69.5t-191 -28.5q-229 0 -364 157q-113 129 -113 332zM190 510 h699q-3 153 -88 248q-44 48 -109 78t-141 30q-179 0 -275 -121q-76 -91 -86 -235zM307 1374q0 23 16.5 39.5t41.5 16.5q23 0 39 -16.5t16 -39.5q0 -25 -16 -42t-39 -17q-25 0 -41.5 17t-16.5 42zM647 1374q0 23 16.5 39.5t41.5 16.5q23 0 39 -16.5t16 -39.5q0 -25 -16 -42 t-39 -17q-25 0 -41.5 17t-16.5 42z" />
<glyph unicode="&#xec;" horiz-adv-x="401" d="M51 1554q0 11 12 11h64q11 0 18 -15l199 -354q1 -4 3.5 -9t2.5 -7q0 -11 -12 -11h-45q-12 0 -21 15l-217 356q-4 12 -4 14zM156 14v889q0 15 14 15h61q5 0 10 -4.5t5 -10.5v-889q0 -6 -5 -10t-10 -4h-61q-14 0 -14 14z" />
<glyph unicode="&#xed;" horiz-adv-x="401" d="M51 1178q0 2 2.5 7t3.5 9l199 354q8 15 18 15h64q12 0 12 -11q0 -2 -4 -14l-217 -356q-9 -15 -23 -15h-43q-12 0 -12 11zM156 14v889q0 15 14 15h61q5 0 10 -4.5t5 -10.5v-889q0 -6 -5 -10t-10 -4h-61q-14 0 -14 14z" />
<glyph unicode="&#xee;" horiz-adv-x="401" d="M-172 1172.5q-2 5.5 4 13.5l332 364q10 13 20 13h33q11 0 21 -13l329 -364q6 -8 4.5 -13.5t-10.5 -5.5h-53q-17 0 -27 13l-280 307l-283 -307q-10 -13 -24 -13h-54q-10 0 -12 5.5zM156 14v889q0 15 14 15h61q5 0 10 -4.5t5 -10.5v-889q0 -6 -5 -10t-10 -4h-61 q-14 0 -14 14z" />
<glyph unicode="&#xef;" horiz-adv-x="401" d="M-25 1374q0 23 16.5 39.5t41.5 16.5q23 0 39 -16.5t16 -39.5q0 -25 -16 -42t-39 -17q-25 0 -41.5 17t-16.5 42zM156 14v889q0 15 14 15h61q5 0 10 -4.5t5 -10.5v-889q0 -6 -5 -10t-10 -4h-61q-14 0 -14 14zM315 1374q0 23 16.5 39.5t41.5 16.5q23 0 39 -16.5t16 -39.5 q0 -25 -16 -42t-39 -17q-25 0 -41.5 17t-16.5 42z" />
<glyph unicode="&#xf0;" horiz-adv-x="1038" d="M98 422q0 166 109 280q60 61 139 93t160 32q157 0 295 -94q-36 118 -106 235.5t-158 209.5l-213 -168q-12 -8 -19 2l-24 28q-8 12 4 21l202 160q-72 69 -172 133q-12 9 -6 18l37 41q9 12 25 2q95 -56 184 -143l178 141q13 13 21 2l24 -31q8 -11 -4 -20l-172 -137 q149 -157 242.5 -361t93.5 -411q0 -116 -34.5 -208t-94 -149.5t-136 -87.5t-163.5 -30q-162 0 -274 98q-66 58 -102 146.5t-36 197.5zM182 422q0 -187 109 -285q87 -84 219 -84q147 0 245.5 104t98.5 298q0 88 -23 196q-147 105 -315 105q-147 0 -246 -105q-88 -91 -88 -229 z" />
<glyph unicode="&#xf1;" horiz-adv-x="1110" d="M156 14v889q0 15 14 15h57q6 0 10.5 -4.5t4.5 -10.5v-184h6q34 86 114 149q95 68 232 68q170 0 264 -82q111 -94 111 -315v-525q0 -14 -15 -14h-61q-5 0 -9.5 4t-4.5 10v510q0 191 -88 271q-70 67 -211 67q-188 0 -277 -143q-57 -97 -57 -232v-473q0 -6 -5 -10t-10 -4 h-61q-14 0 -14 14zM252 1307q0 66 42 106.5t114 40.5q67 0 153 -53q27 -18 42.5 -27.5t39 -17.5t45.5 -8q89 0 98 77q0 17 15 17h28q9 0 14 -5t5 -12q0 -67 -41.5 -107t-112.5 -40q-62 0 -149 55q-77 51 -131 51q-91 0 -101 -79q0 -17 -14 -17h-29q-18 0 -18 19z" />
<glyph unicode="&#xf2;" horiz-adv-x="1161" d="M98 457q0 202 131 336q66 67 156.5 105t194.5 38q212 0 352 -143q131 -134 131 -336q0 -97 -34.5 -183.5t-96.5 -150.5q-137 -143 -352 -143q-214 0 -351 143q-62 64 -96.5 150.5t-34.5 183.5zM186 457q0 -159 103 -277q117 -127 291 -127q175 0 292 127q101 115 101 277 q0 163 -101 278q-115 125 -292 125q-176 0 -291 -125q-103 -118 -103 -278zM430 1554q0 11 12 11h64q10 0 18 -15l199 -354q1 -4 3.5 -9t2.5 -7q0 -11 -12 -11h-45q-12 0 -21 15l-217 356q-4 12 -4 14z" />
<glyph unicode="&#xf3;" horiz-adv-x="1161" d="M98 457q0 202 131 336q66 67 156.5 105t194.5 38q212 0 352 -143q131 -134 131 -336q0 -97 -34.5 -183.5t-96.5 -150.5q-137 -143 -352 -143q-214 0 -351 143q-62 64 -96.5 150.5t-34.5 183.5zM186 457q0 -159 103 -277q117 -127 291 -127q175 0 292 127q101 115 101 277 q0 163 -101 278q-115 125 -292 125q-176 0 -291 -125q-103 -118 -103 -278zM430 1178q0 2 2.5 7t3.5 9l199 354q7 15 18 15h64q12 0 12 -11q0 -2 -4 -14l-217 -356q-9 -15 -23 -15h-43q-12 0 -12 11z" />
<glyph unicode="&#xf4;" horiz-adv-x="1161" d="M98 457q0 202 131 336q66 67 156.5 105t194.5 38q212 0 352 -143q131 -134 131 -336q0 -97 -34.5 -183.5t-96.5 -150.5q-137 -143 -352 -143q-214 0 -351 143q-62 64 -96.5 150.5t-34.5 183.5zM186 457q0 -159 103 -277q117 -127 291 -127q175 0 292 127q101 115 101 277 q0 163 -101 278q-115 125 -292 125q-176 0 -291 -125q-103 -118 -103 -278zM207 1172.5q-2 5.5 4 13.5l332 364q10 13 20 13h33q10 0 20 -13l330 -364q6 -8 4.5 -13.5t-10.5 -5.5h-53q-17 0 -27 13l-280 307l-283 -307q-10 -13 -25 -13h-53q-10 0 -12 5.5z" />
<glyph unicode="&#xf5;" horiz-adv-x="1161" d="M98 457q0 202 131 336q66 67 156.5 105t194.5 38q212 0 352 -143q131 -134 131 -336q0 -97 -34.5 -183.5t-96.5 -150.5q-137 -143 -352 -143q-214 0 -351 143q-62 64 -96.5 150.5t-34.5 183.5zM186 457q0 -159 103 -277q117 -127 291 -127q175 0 292 127q101 115 101 277 q0 163 -101 278q-115 125 -292 125q-176 0 -291 -125q-103 -118 -103 -278zM279 1307q0 66 41.5 106.5t113.5 40.5q68 0 154 -53q27 -18 42.5 -27.5t39 -17.5t45.5 -8q89 0 98 77q0 17 14 17h29q18 0 18 -17q0 -67 -41 -107t-112 -40q-63 0 -150 55q-77 51 -131 51 q-90 0 -100 -79q0 -17 -14 -17h-29q-18 0 -18 19z" />
<glyph unicode="&#xf6;" horiz-adv-x="1161" d="M98 457q0 202 131 336q66 67 156.5 105t194.5 38q212 0 352 -143q131 -134 131 -336q0 -97 -34.5 -183.5t-96.5 -150.5q-137 -143 -352 -143q-214 0 -351 143q-62 64 -96.5 150.5t-34.5 183.5zM186 457q0 -159 103 -277q117 -127 291 -127q175 0 292 127q101 115 101 277 q0 163 -101 278q-115 125 -292 125q-176 0 -291 -125q-103 -118 -103 -278zM352 1374q0 23 16.5 39.5t41.5 16.5q23 0 39 -16.5t16 -39.5q0 -25 -16 -42t-39 -17q-25 0 -41.5 17t-16.5 42zM692 1374q0 23 16.5 39.5t41.5 16.5q23 0 39 -16.5t16 -39.5q0 -25 -16 -42t-39 -17 q-25 0 -41.5 17t-16.5 42z" />
<glyph unicode="&#xf7;" horiz-adv-x="1163" d="M76 694v58q0 4 4 8t8 4h985q5 0 9.5 -4t4.5 -8v-58q0 -6 -4.5 -10t-9.5 -4h-985q-12 0 -12 14zM520 1155q0 25 18 42t44 17q25 0 41 -17t16 -42q0 -26 -16 -42.5t-41 -16.5q-27 0 -44.5 16.5t-17.5 42.5zM522 289q0 26 17 43.5t43 17.5t42.5 -17.5t16.5 -43.5 q0 -25 -16.5 -42.5t-42.5 -17.5t-43 17.5t-17 42.5z" />
<glyph unicode="&#xf8;" horiz-adv-x="1181" d="M98 457q0 202 131 336q66 67 156.5 105t194.5 38q170 0 299 -98l57 65q15 15 22 15h37q8 0 10.5 -6.5t-4.5 -12.5l-81 -94l12 -12q131 -134 131 -336q0 -97 -34.5 -183.5t-96.5 -150.5q-137 -143 -352 -143q-165 0 -291 90l-49 -56q-11 -14 -21 -14h-37q-8 0 -10.5 4 t4.5 12l74 86q-12 9 -21 21q-62 64 -96.5 150.5t-34.5 183.5zM186 457q0 -159 103 -277l14 -16l524 612q-108 84 -247 84q-176 0 -291 -125q-103 -118 -103 -278zM342 131q105 -78 238 -78q175 0 292 127q101 115 101 277q0 163 -101 278l-6 6z" />
<glyph unicode="&#xf9;" horiz-adv-x="1095" d="M141 383v520q0 6 4.5 10.5t10.5 4.5h61q5 0 8.5 -4.5t3.5 -10.5v-516q0 -127 45 -207q32 -58 101.5 -91.5t171.5 -33.5t171 33.5t101 91.5q25 41 35 87.5t10 119.5v516q0 6 4.5 10.5t10.5 4.5h61q5 0 9.5 -4.5t4.5 -10.5v-520q0 -86 -14 -143t-47 -111 q-43 -71 -132.5 -110t-213.5 -39q-123 0 -212 39t-134 110q-32 54 -46 111.5t-14 142.5zM397 1554q0 11 13 11h63q11 0 19 -15l198 -354q1 -4 3.5 -9t2.5 -7q0 -11 -12 -11h-45q-12 0 -21 15l-217 356q-4 12 -4 14z" />
<glyph unicode="&#xfa;" horiz-adv-x="1095" d="M141 383v520q0 6 4.5 10.5t10.5 4.5h61q5 0 8.5 -4.5t3.5 -10.5v-516q0 -127 45 -207q32 -58 101.5 -91.5t171.5 -33.5t171 33.5t101 91.5q25 41 35 87.5t10 119.5v516q0 6 4.5 10.5t10.5 4.5h61q5 0 9.5 -4.5t4.5 -10.5v-520q0 -86 -14 -143t-47 -111 q-43 -71 -132.5 -110t-213.5 -39q-123 0 -212 39t-134 110q-32 54 -46 111.5t-14 142.5zM397 1178q0 2 2.5 7t3.5 9l199 354q8 15 19 15h63q12 0 12 -11q0 -2 -4 -14l-217 -356q-9 -15 -22 -15h-43q-13 0 -13 11z" />
<glyph unicode="&#xfb;" horiz-adv-x="1095" d="M141 383v520q0 6 4.5 10.5t10.5 4.5h61q5 0 8.5 -4.5t3.5 -10.5v-516q0 -127 45 -207q32 -58 101.5 -91.5t171.5 -33.5t171 33.5t101 91.5q25 41 35 87.5t10 119.5v516q0 6 4.5 10.5t10.5 4.5h61q5 0 9.5 -4.5t4.5 -10.5v-520q0 -86 -14 -143t-47 -111 q-43 -71 -132.5 -110t-213.5 -39q-123 0 -212 39t-134 110q-32 54 -46 111.5t-14 142.5zM174 1172.5q-2 5.5 4 13.5l332 364q10 13 20 13h33q11 0 21 -13l329 -364q6 -8 4.5 -13.5t-10.5 -5.5h-53q-17 0 -27 13l-280 307l-283 -307q-10 -13 -24 -13h-54q-10 0 -12 5.5z" />
<glyph unicode="&#xfc;" horiz-adv-x="1095" d="M141 383v520q0 6 4.5 10.5t10.5 4.5h61q5 0 8.5 -4.5t3.5 -10.5v-516q0 -127 45 -207q32 -58 101.5 -91.5t171.5 -33.5t171 33.5t101 91.5q25 41 35 87.5t10 119.5v516q0 6 4.5 10.5t10.5 4.5h61q5 0 9.5 -4.5t4.5 -10.5v-520q0 -86 -14 -143t-47 -111 q-43 -71 -132.5 -110t-213.5 -39q-123 0 -212 39t-134 110q-32 54 -46 111.5t-14 142.5zM319 1374q0 23 16.5 39.5t41.5 16.5q23 0 39 -16.5t16 -39.5q0 -25 -16 -42t-39 -17q-25 0 -41.5 17t-16.5 42zM659 1374q0 23 16.5 39.5t41.5 16.5q23 0 39 -16.5t16 -39.5 q0 -25 -16 -42t-39 -17q-25 0 -41.5 17t-16.5 42z" />
<glyph unicode="&#xfd;" horiz-adv-x="915" d="M10.5 911.5q2.5 6.5 12.5 6.5h75q15 0 21 -15l356 -844l328 844q3 15 20 15h68q17 0 12 -19l-379 -946q-81 -209 -172 -305q-113 -122 -289 -119q-12 0 -12 12v64q0 12 12 12h31q121 0 211 113q59 75 123 219l-416 950q-4 6 -1.5 12.5zM305 1178q0 2 2.5 7t3.5 9l199 354 q8 15 18 15h64q12 0 12 -11q0 -2 -4 -14l-217 -356q-9 -15 -23 -15h-43q-12 0 -12 11z" />
<glyph unicode="&#xfe;" horiz-adv-x="1050" d="M156 -457v1837q0 15 14 15h61q5 0 10 -4.5t5 -10.5v-458q89 14 174 14q241 0 383 -127q147 -128 147 -348q0 -216 -116 -342q-67 -70 -157.5 -104.5t-178.5 -34.5q-146 0 -252 53v-490q0 -6 -5 -10t-10 -4h-61q-14 0 -14 14zM246 109q59 -30 112.5 -43t130.5 -13 q71 0 143.5 27.5t127.5 83.5q102 110 102 297q0 180 -117 291q-116 110 -319 110q-106 0 -180 -14v-739z" />
<glyph unicode="&#xff;" horiz-adv-x="915" d="M10.5 911.5q2.5 6.5 12.5 6.5h75q15 0 21 -15l356 -844l328 844q3 15 20 15h68q17 0 12 -19l-379 -946q-81 -209 -172 -305q-113 -122 -289 -119q-12 0 -12 12v64q0 12 12 12h31q121 0 211 113q59 75 123 219l-416 950q-4 6 -1.5 12.5zM229 1374q0 23 16.5 39.5 t41.5 16.5q23 0 39 -16.5t16 -39.5q0 -25 -16 -42t-39 -17q-25 0 -41.5 17t-16.5 42zM569 1374q0 23 16.5 39.5t41.5 16.5q23 0 39 -16.5t16 -39.5q0 -25 -16 -42t-39 -17q-25 0 -41.5 17t-16.5 42z" />
<glyph unicode="&#x152;" horiz-adv-x="2486" d="M102 694q0 145 57.5 278.5t154 230t230 153.5t279.5 57q194 0 359 -96t262 -258v321q0 15 14 15h944q6 0 10.5 -4.5t4.5 -10.5v-59q0 -5 -4.5 -9.5t-10.5 -4.5h-860v-566h756q4 0 9 -4.5t5 -9.5v-59q0 -6 -4.5 -10.5t-9.5 -4.5h-756v-567h860q15 0 15 -14v-58 q0 -14 -15 -14h-944q-14 0 -14 14v316q-97 -161 -261.5 -255.5t-359.5 -94.5t-361 95.5t-263 260t-97 358.5zM207 694q0 -126 48 -241.5t130 -199.5t196.5 -133.5t241.5 -49.5q170 0 312.5 84.5t224.5 228t82 311.5q0 167 -82 311t-225 230t-312 86t-311.5 -86t-223.5 -230 t-81 -311z" />
<glyph unicode="&#x153;" horiz-adv-x="1949" d="M98 457q0 202 131 336q66 67 156.5 105t194.5 38q212 0 352 -143q55 -58 82 -119q31 71 78 123q123 139 335 139q201 0 322 -141q108 -123 102 -330q0 -16 -18 -16h-766q3 -154 88 -263q52 -65 129.5 -101t171.5 -36q165 0 307 90q16 9 25 -2l20 -39q5 -10 -8 -20 q-66 -41 -157.5 -69.5t-190.5 -28.5q-230 0 -365 157q-38 41 -69 111q-37 -76 -86 -125q-137 -143 -352 -143q-214 0 -351 143q-62 64 -96.5 150.5t-34.5 183.5zM186 457q0 -159 103 -277q117 -127 291 -127q175 0 292 127q101 115 101 277q0 163 -101 278 q-115 125 -292 125q-176 0 -291 -125q-103 -118 -103 -278zM1067 510h698q-3 153 -88 248q-44 48 -109 78t-141 30q-178 0 -274 -121q-76 -91 -86 -235z" />
<glyph unicode="&#x178;" horiz-adv-x="1196" d="M3 1388q2 7 13 7h80q14 0 23 -15l477 -655l479 655q7 15 23 15h82q10 0 12 -7t-4 -16l-543 -743v-615q0 -14 -12 -14h-72q-5 0 -9.5 4t-4.5 10v615l-539 743q-7 9 -5 16zM371 1790q0 23 16 39t41 16q23 0 39 -16t16 -39q0 -25 -16 -42t-39 -17q-25 0 -41 17t-16 42z M711 1790q0 23 16 39t41 16q23 0 39 -16t16 -39q0 -25 -16 -42t-39 -17q-25 0 -41 17t-16 42z" />
<glyph unicode="&#x2c6;" horiz-adv-x="802" d="M29 1172.5q-2 5.5 4 13.5l332 364q10 13 20 13h33q10 0 20 -13l330 -364q6 -8 4.5 -13.5t-10.5 -5.5h-53q-17 0 -27 13l-281 307l-282 -307q-10 -13 -25 -13h-53q-10 0 -12 5.5z" />
<glyph unicode="&#x2dc;" horiz-adv-x="802" d="M102 1307q0 66 42 106.5t114 40.5q68 0 154 -53q27 -18 42.5 -27.5t39 -17.5t45.5 -8q89 0 98 77q0 17 14 17h29q18 0 18 -17q0 -67 -41 -107t-112 -40q-63 0 -150 55q-77 51 -131 51q-90 0 -100 -79q0 -17 -14 -17h-29q-19 0 -19 19z" />
<glyph unicode="&#x2000;" horiz-adv-x="1000" />
<glyph unicode="&#x2001;" horiz-adv-x="2001" />
<glyph unicode="&#x2002;" horiz-adv-x="1000" />
<glyph unicode="&#x2003;" horiz-adv-x="2001" />
<glyph unicode="&#x2004;" horiz-adv-x="667" />
<glyph unicode="&#x2005;" horiz-adv-x="500" />
<glyph unicode="&#x2006;" horiz-adv-x="333" />
<glyph unicode="&#x2007;" horiz-adv-x="333" />
<glyph unicode="&#x2008;" horiz-adv-x="250" />
<glyph unicode="&#x2009;" horiz-adv-x="400" />
<glyph unicode="&#x200a;" horiz-adv-x="111" />
<glyph unicode="&#x2010;" horiz-adv-x="1001" d="M178 573v58q0 14 15 14h616q5 0 9.5 -4t4.5 -10v-58q0 -5 -4.5 -9.5t-9.5 -4.5h-616q-6 0 -10.5 4.5t-4.5 9.5z" />
<glyph unicode="&#x2011;" horiz-adv-x="1001" d="M178 573v58q0 14 15 14h616q5 0 9.5 -4t4.5 -10v-58q0 -5 -4.5 -9.5t-9.5 -4.5h-616q-6 0 -10.5 4.5t-4.5 9.5z" />
<glyph unicode="&#x2012;" horiz-adv-x="1001" d="M178 573v58q0 14 15 14h616q5 0 9.5 -4t4.5 -10v-58q0 -5 -4.5 -9.5t-9.5 -4.5h-616q-6 0 -10.5 4.5t-4.5 9.5z" />
<glyph unicode="&#x2013;" horiz-adv-x="1413" d="M178 483v62q0 5 4.5 8.5t10.5 3.5h1028q14 0 14 -12v-62q0 -12 -14 -12h-1028q-6 0 -10.5 3.5t-4.5 8.5z" />
<glyph unicode="&#x2014;" horiz-adv-x="2478" d="M178 483v62q0 5 4.5 8.5t10.5 3.5h2093q14 0 14 -12v-62q0 -12 -14 -12h-2093q-6 0 -10.5 3.5t-4.5 8.5z" />
<glyph unicode="&#x2018;" horiz-adv-x="356" d="M111 1260q-2 48 26.5 92.5t73.5 64.5q14 7 18 -2l11 -16q9 -12 -2 -19q-41 -32 -41 -63q0 -18 24.5 -40.5t24.5 -49.5q0 -25 -17.5 -42.5t-44.5 -17.5q-36 0 -54.5 26t-18.5 67z" />
<glyph unicode="&#x2019;" horiz-adv-x="356" d="M111 1356q0 26 16.5 42.5t44.5 16.5q35 0 54.5 -26t19.5 -66q0 -47 -29 -92.5t-72 -67.5q-15 -6 -22 4l-8 17q-7 9 4 20q39 31 39 60q0 19 -23.5 42t-23.5 50z" />
<glyph unicode="&#x201a;" horiz-adv-x="321" d="M102 39q0 25 17.5 42t44.5 17q35 0 54.5 -26t19.5 -66q0 -49 -29 -94.5t-72 -65.5q-15 -6 -22 4l-9 17q-9 9 5 18q39 35 39 62q0 19 -24 42t-24 50z" />
<glyph unicode="&#x201c;" horiz-adv-x="598" d="M111 1260q-2 48 26.5 92.5t73.5 64.5q14 7 18 -2l11 -16q9 -12 -2 -19q-41 -32 -41 -63q0 -18 24.5 -40.5t24.5 -49.5q0 -25 -17.5 -42.5t-44.5 -17.5q-36 0 -54.5 26t-18.5 67zM352 1260q0 48 28.5 92.5t72.5 64.5q13 7 20 -2l10 -16q8 -11 -4 -19q-14 -13 -20.5 -19 t-13.5 -18.5t-7 -25.5q0 -18 24.5 -40.5t24.5 -49.5q0 -25 -17 -42.5t-44 -17.5q-70 0 -74 93z" />
<glyph unicode="&#x201d;" horiz-adv-x="598" d="M111 1356q0 26 16.5 42.5t44.5 16.5q35 0 54.5 -26t19.5 -66q0 -47 -29 -92.5t-72 -67.5q-15 -6 -22 4l-8 17q-7 9 4 20q39 31 39 60q0 19 -23.5 42t-23.5 50zM352 1356q0 26 17 42.5t45 16.5q36 0 54.5 -25.5t18.5 -66.5q1 -47 -27 -92.5t-71 -67.5q-15 -6 -22 4l-11 17 q-6 11 6 20q39 35 39 60q0 19 -24.5 42t-24.5 50z" />
<glyph unicode="&#x201e;" horiz-adv-x="565" d="M102 39q0 25 17.5 42t44.5 17q35 0 54.5 -26t19.5 -66q0 -49 -29 -94.5t-72 -65.5q-15 -6 -22 4l-9 17q-9 9 5 18q39 35 39 62q0 19 -24 42t-24 50zM344 39q0 25 17.5 42t44.5 17q36 0 54.5 -25.5t18.5 -66.5q1 -49 -27 -94.5t-71 -65.5q-15 -6 -23 4l-10 17q-8 11 6 18 q14 14 19 19.5t12.5 18t7.5 24.5q0 19 -24.5 42t-24.5 50z" />
<glyph unicode="&#x2022;" horiz-adv-x="1044" d="M109 698q0 170 121.5 292t291.5 122t292 -122t122 -292t-122 -291.5t-292 -121.5t-291.5 121.5t-121.5 291.5z" />
<glyph unicode="&#x2026;" horiz-adv-x="1155" d="M102 41q0 26 17 42.5t43 16.5t42.5 -16.5t16.5 -42.5t-16.5 -42.5t-42.5 -16.5t-43 16.5t-17 42.5zM526 41q0 26 17.5 42.5t44.5 16.5q25 0 42 -16.5t17 -42.5t-17 -42.5t-42 -16.5q-27 0 -44.5 16.5t-17.5 42.5zM952 41q0 26 17 42.5t43 16.5q25 0 42 -16.5t17 -42.5 t-17 -42.5t-42 -16.5q-26 0 -43 16.5t-17 42.5z" />
<glyph unicode="&#x202f;" horiz-adv-x="400" />
<glyph unicode="&#x2039;" horiz-adv-x="667" d="M70 463q0 5 10 20l418 441q12 12 24 12h64q11 0 14 -8t-4 -15l-424 -450l424 -451q7 -8 4 -15t-14 -7h-64q-12 0 -24 12l-418 440q-10 15 -10 21z" />
<glyph unicode="&#x203a;" horiz-adv-x="667" d="M67 -3q-2 7 5 15l424 451l-424 450q-7 7 -5 15t15 8h63q12 0 27 -12l416 -441q10 -15 10 -20q0 -6 -10 -21l-416 -440q-15 -12 -27 -12h-63q-13 0 -15 7z" />
<glyph unicode="&#x205f;" horiz-adv-x="500" />
<glyph unicode="&#x20ac;" d="M-18 545v30q0 15 14 15h117q-9 52 -9 108q0 52 9 105h-117q-14 0 -14 14v31q0 5 4 9.5t10 4.5h127q50 203 205 352q95 94 220 146.5t261 52.5q233 0 430 -117q18 -11 10 -24l-24 -58q-8 -13 -25 -4q-180 115 -391 115q-230 0 -403 -166q-131 -125 -175 -297h816 q6 0 10 -4.5t4 -9.5v-31q0 -14 -14 -14h-834q-8 -47 -8 -105q0 -56 6 -108h717q14 0 14 -15v-30q0 -5 -4 -10t-10 -5h-701q43 -187 176 -307q169 -155 408 -155q210 0 393 114q16 12 23 -4l26 -57q7 -14 -8 -23q-196 -118 -434 -118q-277 0 -473 174q-168 146 -217 376h-125 q-6 0 -10 5t-4 10z" />
<glyph unicode="&#x2122;" horiz-adv-x="1542" d="M51 1417v29q0 14 15 14h557q12 0 12 -14v-29q0 -5 -4 -9.5t-8 -4.5h-248v-662q0 -14 -15 -14h-34q-5 0 -9 4t-4 10v662h-247q-6 0 -10.5 4.5t-4.5 9.5zM717 733v713q0 14 14 14h33q16 0 27 -16l286 -479l289 479q9 16 27 16h32q15 0 15 -14v-713q0 -14 -15 -14h-32 q-15 0 -15 14v617l-274 -453q-9 -12 -19 -12h-16q-11 0 -20 12l-271 453v-617q0 -14 -14 -14h-33q-14 0 -14 14z" />
<glyph unicode="&#x25fc;" horiz-adv-x="921" d="M0 0v922h922v-922h-922z" />
</font>
</defs>
</svg>
